<svg width="876" height="254" viewBox="0 0 876 254" fill="none" xmlns="http://www.w3.org/2000/svg">
<path d="M10.25 151.75L12.1401 151.096L11.6745 149.75H10.25V151.75ZM-59.25 151.75V149.75H-60.6745L-61.1401 151.096L-59.25 151.75ZM-70.75 185V187H-69.3255L-68.8599 185.654L-70.75 185ZM-107.5 185L-109.382 184.324L-110.343 187H-107.5V185ZM-44.75 10.25V8.24998H-46.1569L-46.6323 9.57407L-44.75 10.25ZM-3.99999 10.25L-2.11767 9.57407L-2.59313 8.24998H-3.99999V10.25ZM58.75 185V187H61.5932L60.6323 184.324L58.75 185ZM21.75 185L19.8599 185.654L20.3255 187H21.75V185ZM0.750008 123.75V125.75H3.55804L2.64013 123.096L0.750008 123.75ZM-24.5 50.75L-22.6099 50.0962L-24.5 44.6317L-26.3901 50.0962L-24.5 50.75ZM-49.75 123.75L-51.6401 123.096L-52.558 125.75H-49.75V123.75ZM10.25 149.75H-59.25V153.75H10.25V149.75ZM-61.1401 151.096L-72.6401 184.346L-68.8599 185.654L-57.3599 152.404L-61.1401 151.096ZM-70.75 183H-107.5V187H-70.75V183ZM-105.618 185.676L-42.8677 10.9259L-46.6323 9.57407L-109.382 184.324L-105.618 185.676ZM-44.75 12.25H-3.99999V8.24998H-44.75V12.25ZM-5.88232 10.9259L56.8677 185.676L60.6323 184.324L-2.11767 9.57407L-5.88232 10.9259ZM58.75 183H21.75V187H58.75V183ZM23.6402 184.346L12.1401 151.096L8.35986 152.404L19.8599 185.654L23.6402 184.346ZM2.64013 123.096L-22.6099 50.0962L-26.3901 51.4038L-1.14012 124.404L2.64013 123.096ZM-26.3901 50.0962L-51.6401 123.096L-47.8599 124.404L-22.6099 51.4038L-26.3901 50.0962ZM-49.75 125.75H0.750008V121.75H-49.75V125.75ZM163.705 50.5L162.766 52.2657L162.781 52.2736L162.796 52.2812L163.705 50.5ZM182.205 66.25L180.561 67.3884L184.205 72.6525V66.25H182.205ZM182.205 46.5V44.5H180.205V46.5H182.205ZM217.455 46.5H219.455V44.5H217.455V46.5ZM209.705 220.25L207.928 219.332L207.922 219.344L209.705 220.25ZM186.455 244.25L185.472 242.508L185.461 242.514L185.451 242.52L186.455 244.25ZM100.455 239.5L99.2723 241.113L99.2825 241.12L100.455 239.5ZM79.2051 202V200H76.9835L77.2161 202.209L79.2051 202ZM113.955 202L115.876 201.444L115.458 200H113.955V202ZM125.705 217L126.761 215.301L126.754 215.297L126.748 215.293L125.705 217ZM172.705 213.5L171.33 212.048L171.32 212.058L171.31 212.067L172.705 213.5ZM182.205 164.5H184.205V158.097L180.561 163.362L182.205 164.5ZM163.455 180.75L162.503 178.991L162.495 178.996L162.487 179L163.455 180.75ZM104.455 178.25L105.51 176.551L104.455 178.25ZM81.4551 153L79.6662 153.894L79.6744 153.911L79.6829 153.927L81.4551 153ZM81.4551 78L79.6829 77.073L79.6772 77.0838L79.6717 77.0946L81.4551 78ZM104.205 53L103.172 51.2876L103.165 51.2916L103.159 51.2957L104.205 53ZM177.205 94L175.446 94.951L175.451 94.9612L175.457 94.9713L177.205 94ZM163.705 80L162.691 81.7239L162.71 81.7351L162.729 81.7459L163.705 80ZM127.455 79.75L126.457 78.0167V78.0168L127.455 79.75ZM113.955 93.75L112.216 92.7628L112.211 92.7707L112.207 92.7787L113.955 93.75ZM113.955 137.25L112.185 138.181L112.2 138.21L112.216 138.237L113.955 137.25ZM127.455 151.5L126.418 153.21L126.43 153.217L126.441 153.224L127.455 151.5ZM163.705 151.75L164.681 153.496L164.7 153.485L164.719 153.474L163.705 151.75ZM177.205 137.75L178.953 138.721L178.959 138.711L178.965 138.701L177.205 137.75ZM136.455 46.25C146.515 46.25 155.266 48.2764 162.766 52.2657L164.644 48.7342C156.478 44.3902 147.062 42.25 136.455 42.25V46.25ZM162.796 52.2812C170.368 56.1481 176.269 61.1896 180.561 67.3884L183.849 65.1116C179.141 58.3104 172.709 52.8518 164.615 48.7188L162.796 52.2812ZM184.205 66.25V46.5H180.205V66.25H184.205ZM182.205 48.5H217.455V44.5H182.205V48.5ZM215.455 46.5V186H219.455V46.5H215.455ZM215.455 186C215.455 198.559 212.929 209.653 207.928 219.332L211.482 221.168C216.815 210.847 219.455 199.108 219.455 186H215.455ZM207.922 219.344C202.941 229.145 195.477 236.86 185.472 242.508L187.438 245.992C198.1 239.973 206.135 231.689 211.488 221.156L207.922 219.344ZM185.451 242.52C175.485 248.307 163.349 251.25 148.955 251.25V255.25C163.895 255.25 176.759 252.193 187.459 245.98L185.451 242.52ZM148.955 251.25C129.6 251.25 113.874 246.742 101.628 237.88L99.2825 241.12C112.369 250.591 128.977 255.25 148.955 255.25V251.25ZM101.638 237.887C89.6061 229.064 82.8036 217.081 81.1941 201.791L77.2161 202.209C78.9399 218.586 86.304 231.603 99.2724 241.113L101.638 237.887ZM79.2051 204H113.955V200H79.2051V204ZM112.034 202.556C114.016 209.403 118.267 214.798 124.662 218.707L126.748 215.293C121.143 211.868 117.561 207.264 115.876 201.444L112.034 202.556ZM124.649 218.699C131.19 222.764 138.988 224.75 147.955 224.75V220.75C139.589 220.75 132.554 218.902 126.761 215.301L124.649 218.699ZM147.955 224.75C158.558 224.75 167.337 221.518 174.1 214.933L171.31 212.067C165.406 217.815 157.685 220.75 147.955 220.75V224.75ZM174.081 214.952C180.954 208.44 184.205 198.651 184.205 186H180.205C180.205 198.016 177.123 206.56 171.33 212.048L174.081 214.952ZM184.205 186V164.5H180.205V186H184.205ZM180.561 163.362C176.265 169.567 170.268 174.785 162.503 178.991L164.408 182.509C172.642 178.048 179.146 172.433 183.849 165.638L180.561 163.362ZM162.487 179C154.988 183.148 146.33 185.25 136.455 185.25V189.25C146.914 189.25 156.255 187.018 164.423 182.5L162.487 179ZM136.455 185.25C125.151 185.25 114.851 182.349 105.51 176.551L103.4 179.949C113.392 186.151 124.426 189.25 136.455 189.25V185.25ZM105.51 176.551C96.1697 170.753 88.741 162.614 83.2273 152.073L79.6829 153.927C85.5025 165.053 93.4071 173.747 103.4 179.949L105.51 176.551ZM83.2439 152.106C77.9025 141.423 75.2051 129.153 75.2051 115.25H71.2051C71.2051 129.68 74.0077 142.577 79.6662 153.894L83.2439 152.106ZM75.2051 115.25C75.2051 101.517 77.9011 89.4182 83.2384 78.9054L79.6717 77.0946C74.009 88.2484 71.2051 100.983 71.2051 115.25H75.2051ZM83.2273 78.927C88.7433 68.3816 96.0885 60.3308 105.252 54.7043L103.159 51.2957C93.3217 57.3358 85.5002 65.9517 79.6829 77.073L83.2273 78.927ZM105.238 54.7124C114.578 49.0764 124.968 46.25 136.455 46.25V42.25C124.276 42.25 113.166 45.2569 103.172 51.2876L105.238 54.7124ZM184.205 115.75C184.205 106.99 182.487 99.3887 178.953 93.0287L175.457 94.9713C178.59 100.611 180.205 107.51 180.205 115.75H184.205ZM178.965 93.049C175.466 86.5761 170.705 81.6208 164.681 78.2541L162.729 81.7459C168.038 84.7125 172.278 89.0905 175.446 94.951L178.965 93.049ZM164.719 78.2761C158.749 74.7642 152.316 73 145.455 73V77C151.594 77 157.328 78.5692 162.691 81.7239L164.719 78.2761ZM145.455 73C138.614 73 132.268 74.6709 126.457 78.0167L128.453 81.4832C133.642 78.4957 139.296 77 145.455 77V73ZM126.457 78.0168C120.613 81.3817 115.871 86.323 112.216 92.7628L115.694 94.7372C119.039 88.8436 123.297 84.4516 128.453 81.4832L126.457 78.0168ZM112.207 92.7787C108.676 99.1332 106.955 106.649 106.955 115.25H110.955C110.955 107.184 112.567 100.367 115.703 94.7213L112.207 92.7787ZM106.955 115.25C106.955 123.854 108.678 131.517 112.185 138.181L115.725 136.318C112.566 130.316 110.955 123.312 110.955 115.25H106.955ZM112.216 138.237C115.867 144.67 120.597 149.682 126.418 153.21L128.492 149.79C123.313 146.651 119.044 142.164 115.694 136.263L112.216 138.237ZM126.441 153.224C132.403 156.731 138.751 158.5 145.455 158.5V154.5C139.492 154.5 133.841 152.936 128.469 149.776L126.441 153.224ZM145.455 158.5C152.296 158.5 158.715 156.829 164.681 153.496L162.729 150.004C157.361 153.004 151.614 154.5 145.455 154.5V158.5ZM164.719 153.474C170.707 149.952 175.455 145.019 178.953 138.721L175.457 136.779C172.289 142.481 168.036 146.882 162.691 150.026L164.719 153.474ZM178.965 138.701C182.486 132.186 184.205 124.512 184.205 115.75H180.205C180.205 123.988 178.591 130.98 175.446 136.799L178.965 138.701ZM379.389 126.25V128.25H381.083L381.361 126.579L379.389 126.25ZM278.139 126.25V124.25H275.965L276.146 126.416L278.139 126.25ZM288.639 149.75L287.285 151.223L288.639 149.75ZM339.139 141.5V139.5H337.894L337.345 140.616L339.139 141.5ZM376.889 141.5L378.804 142.075L379.577 139.5H376.889V141.5ZM353.889 174.5L355.089 176.1L355.096 176.094L355.104 176.089L353.889 174.5ZM276.139 178.5L275.146 180.236L275.163 180.246L275.179 180.255L276.139 178.5ZM251.389 153.25L249.628 154.198L249.633 154.209L249.639 154.219L251.389 153.25ZM251.389 78L249.628 77.0518L251.389 78ZM275.889 53L276.86 54.7483L275.889 53ZM347.389 52.75L346.427 54.5036L346.439 54.51L347.389 52.75ZM371.639 77L369.879 77.9499L369.888 77.9666L369.897 77.9832L371.639 77ZM344.139 102.75V104.75H346.176L346.138 102.713L344.139 102.75ZM334.389 81.25L333.077 82.7601L333.089 82.77L333.1 82.7798L334.389 81.25ZM289.139 81L290.465 82.4972L290.467 82.4948L289.139 81ZM278.389 102.75L276.409 102.467L276.083 104.75H278.389V102.75ZM378.389 112.75C378.389 117.664 378.061 122.051 377.416 125.921L381.361 126.579C382.05 122.449 382.389 117.836 382.389 112.75H378.389ZM379.389 124.25H278.139V128.25H379.389V124.25ZM276.146 126.416C277.012 136.812 280.678 145.151 287.285 151.223L289.992 148.277C284.266 143.016 280.932 135.688 280.132 126.084L276.146 126.416ZM287.285 151.223C293.85 157.255 301.928 160.25 311.389 160.25V156.25C302.849 156.25 295.76 153.578 289.992 148.277L287.285 151.223ZM311.389 160.25C318.179 160.25 324.115 158.79 329.11 155.775C334.11 152.757 338.04 148.257 340.933 142.384L337.345 140.616C334.737 145.91 331.293 149.785 327.043 152.35C322.788 154.919 317.599 156.25 311.389 156.25V160.25ZM339.139 143.5H376.889V139.5H339.139V143.5ZM374.973 140.925C371.097 153.845 363.682 164.494 352.674 172.911L355.104 176.089C366.762 167.173 374.68 155.822 378.804 142.075L374.973 140.925ZM352.689 172.9C341.756 181.099 328.28 185.25 312.139 185.25V189.25C328.997 189.25 343.354 184.901 355.089 176.1L352.689 172.9ZM312.139 185.25C299.108 185.25 287.443 182.402 277.098 176.745L275.179 180.255C286.168 186.264 298.503 189.25 312.139 189.25V185.25ZM277.131 176.764C266.957 170.95 258.965 162.802 253.138 152.281L249.639 154.219C255.812 165.365 264.321 174.05 275.146 180.236L277.131 176.764ZM253.15 152.302C247.496 141.801 244.639 129.636 244.639 115.75H240.639C240.639 130.197 243.615 143.032 249.628 154.198L253.15 152.302ZM244.639 115.75C244.639 101.693 247.497 89.4454 253.15 78.9482L249.628 77.0518C243.613 88.2213 240.639 101.141 240.639 115.75H244.639ZM253.15 78.9482C258.806 68.4429 266.703 60.3912 276.86 54.7483L274.917 51.2517C264.075 57.2755 255.638 65.8904 249.628 77.0518L253.15 78.9482ZM276.86 54.7483C287.024 49.1017 298.764 46.25 312.139 46.25V42.25C298.18 42.25 285.753 45.2317 274.917 51.2517L276.86 54.7483ZM312.139 46.25C325.009 46.25 336.422 49.0168 346.427 54.5036L348.35 50.9964C337.689 45.1498 325.601 42.25 312.139 42.25V46.25ZM346.439 54.51C356.596 59.9914 364.397 67.7932 369.879 77.9499L373.399 76.0501C367.547 65.2068 359.182 56.8419 348.339 50.9899L346.439 54.51ZM369.897 77.9832C375.539 87.9772 378.389 99.5463 378.389 112.75H382.389C382.389 98.9536 379.405 86.6895 373.38 76.0168L369.897 77.9832ZM346.138 102.713C345.962 93.1927 342.493 85.4602 335.677 79.7202L333.1 82.7798C338.951 87.7065 341.982 94.3073 342.139 102.787L346.138 102.713ZM335.7 79.7399C328.968 73.8937 320.739 71 311.139 71V75C319.872 75 327.143 77.6063 333.077 82.7601L335.7 79.7399ZM311.139 71C302.024 71 294.206 73.8194 287.81 79.5052L290.467 82.4948C296.071 77.514 302.92 75 311.139 75V71ZM287.813 79.5028C281.554 85.0465 277.794 92.767 276.409 102.467L280.369 103.033C281.65 94.0663 285.057 87.2868 290.465 82.4972L287.813 79.5028ZM278.389 104.75H344.139V100.75H278.389V104.75ZM522.686 60.25L521.249 61.6412L521.254 61.647L521.26 61.6527L522.686 60.25ZM537.936 185V187H539.936V185H537.936ZM502.936 185H500.936V187H502.936V185ZM494.686 83.25L493.211 84.6014L493.221 84.6118L493.23 84.622L494.686 83.25ZM449.186 83.25L447.732 81.8768L447.73 81.878L449.186 83.25ZM440.936 185V187H442.936V185H440.936ZM405.936 185H403.936V187H405.936V185ZM405.936 46.5V44.5H403.936V46.5H405.936ZM440.936 46.5H442.936V44.5H440.936V46.5ZM440.936 63.75H438.936V69.5791L442.514 64.9779L440.936 63.75ZM458.686 49.75L459.529 51.5634L459.538 51.5592L459.547 51.555L458.686 49.75ZM482.686 46.5C498.72 46.5 511.509 51.5821 521.249 61.6412L524.122 58.8588C513.529 47.9179 499.651 42.5 482.686 42.5V46.5ZM521.26 61.6527C530.961 71.5129 535.936 85.4506 535.936 103.75H539.936C539.936 84.716 534.743 69.6537 524.111 58.8473L521.26 61.6527ZM535.936 103.75V185H539.936V103.75H535.936ZM537.936 183H502.936V187H537.936V183ZM504.936 185V108.5H500.936V185H504.936ZM504.936 108.5C504.936 97.1822 502.103 88.202 496.141 81.878L493.23 84.622C498.268 89.9646 500.936 97.8178 500.936 108.5H504.936ZM496.16 81.8985C490.217 75.4153 482.144 72.25 472.186 72.25V76.25C481.228 76.25 488.154 79.0847 493.211 84.6014L496.16 81.8985ZM472.186 72.25C462.071 72.25 453.841 75.4078 447.732 81.8768L450.64 84.6232C455.863 79.0922 462.967 76.25 472.186 76.25V72.25ZM447.73 81.878C441.768 88.202 438.936 97.1822 438.936 108.5H442.936C442.936 97.8178 445.603 89.9646 450.641 84.622L447.73 81.878ZM438.936 108.5V185H442.936V108.5H438.936ZM440.936 183H405.936V187H440.936V183ZM407.936 185V46.5H403.936V185H407.936ZM405.936 48.5H440.936V44.5H405.936V48.5ZM438.936 46.5V63.75H442.936V46.5H438.936ZM442.514 64.9779C446.978 59.2388 452.639 54.7683 459.529 51.5634L457.842 47.9366C450.399 51.3984 444.226 56.2612 439.357 62.5221L442.514 64.9779ZM459.547 51.555C466.594 48.1918 474.297 46.5 482.686 46.5V42.5C473.741 42.5 465.444 44.3082 457.824 47.945L459.547 51.555ZM570.469 78L568.697 77.073L568.691 77.0838L568.685 77.0946L570.469 78ZM593.469 53L594.502 54.7124L593.469 53ZM651.469 50.25L650.589 52.0461L650.604 52.0534L650.619 52.0605L651.469 50.25ZM670.969 65.75L669.364 66.9434L672.969 71.7914V65.75H670.969ZM670.969 0V-2H668.969V0H670.969ZM706.469 0H708.469V-2H706.469V0ZM706.469 185V187H708.469V185H706.469ZM670.969 185H668.969V187H670.969V185ZM670.969 164.5H672.969V157.612L669.28 163.429L670.969 164.5ZM652.719 181L651.78 179.234L652.719 181ZM593.469 178.25L594.523 176.551L593.469 178.25ZM570.469 153L568.68 153.894L568.688 153.911L568.697 153.927L570.469 153ZM666.219 94L664.459 94.951L664.465 94.9612L664.47 94.9713L666.219 94ZM652.719 80L651.705 81.7239L651.724 81.7351L651.743 81.7459L652.719 80ZM616.469 79.75L615.471 78.0167V78.0168L616.469 79.75ZM602.969 93.75L601.229 92.7628L601.225 92.7707L601.22 92.7787L602.969 93.75ZM602.969 137.25L601.199 138.181L601.214 138.21L601.229 138.237L602.969 137.25ZM616.469 151.5L615.432 153.21L615.443 153.217L615.455 153.224L616.469 151.5ZM652.719 151.75L653.694 153.496L653.714 153.485L653.733 153.474L652.719 151.75ZM666.219 137.75L667.967 138.721L667.973 138.711L667.978 138.701L666.219 137.75ZM564.219 115.25C564.219 101.517 566.915 89.4182 572.252 78.9054L568.685 77.0946C563.023 88.2484 560.219 100.983 560.219 115.25H564.219ZM572.241 78.927C577.752 68.3903 585.175 60.3409 594.502 54.7124L592.435 51.2876C582.429 57.3258 574.518 65.943 568.697 77.073L572.241 78.927ZM594.502 54.7124C603.842 49.0764 614.231 46.25 625.719 46.25V42.25C613.539 42.25 602.429 45.2569 592.435 51.2876L594.502 54.7124ZM625.719 46.25C634.411 46.25 642.693 48.1788 650.589 52.0461L652.349 48.4539C643.911 44.3212 635.027 42.25 625.719 42.25V46.25ZM650.619 52.0605C658.521 55.7698 664.749 60.7373 669.364 66.9434L672.574 64.5566C667.522 57.7627 660.749 52.3969 652.319 48.4395L650.619 52.0605ZM672.969 65.75V0H668.969V65.75H672.969ZM670.969 2H706.469V-2H670.969V2ZM704.469 0V185H708.469V0H704.469ZM706.469 183H670.969V187H706.469V183ZM672.969 185V164.5H668.969V185H672.969ZM669.28 163.429C665.15 169.942 659.337 175.214 651.78 179.234L653.658 182.766C661.767 178.453 668.121 172.725 672.658 165.571L669.28 163.429ZM651.78 179.234C644.28 183.224 635.529 185.25 625.469 185.25V189.25C636.076 189.25 645.491 187.11 653.658 182.766L651.78 179.234ZM625.469 185.25C614.165 185.25 603.865 182.349 594.523 176.551L592.414 179.949C602.406 186.151 613.439 189.25 625.469 189.25V185.25ZM594.523 176.551C585.183 170.753 577.755 162.614 572.241 152.073L568.697 153.927C574.516 165.053 582.421 173.747 592.414 179.949L594.523 176.551ZM572.258 152.106C566.916 141.423 564.219 129.153 564.219 115.25H560.219C560.219 129.68 563.021 142.577 568.68 153.894L572.258 152.106ZM673.219 115.75C673.219 106.99 671.5 99.3887 667.967 93.0287L664.47 94.9713C667.604 100.611 669.219 107.51 669.219 115.75H673.219ZM667.978 93.049C664.479 86.5761 659.719 81.6208 653.694 78.2541L651.743 81.7459C657.052 84.7125 661.292 89.0905 664.459 94.951L667.978 93.049ZM653.733 78.2761C647.762 74.7642 641.33 73 634.469 73V77C640.608 77 646.342 78.5692 651.705 81.7239L653.733 78.2761ZM634.469 73C627.627 73 621.282 74.6709 615.471 78.0167L617.467 81.4832C622.656 78.4957 628.31 77 634.469 77V73ZM615.471 78.0168C609.626 81.3817 604.884 86.323 601.229 92.7628L604.708 94.7372C608.053 88.8436 612.311 84.4516 617.467 81.4832L615.471 78.0168ZM601.22 92.7787C597.69 99.1332 595.969 106.649 595.969 115.25H599.969C599.969 107.184 601.581 100.367 604.717 94.7213L601.22 92.7787ZM595.969 115.25C595.969 123.854 597.691 131.517 601.199 138.181L604.739 136.318C601.58 130.316 599.969 123.312 599.969 115.25H595.969ZM601.229 138.237C604.88 144.67 609.611 149.682 615.432 153.21L617.505 149.79C612.327 146.651 608.057 142.164 604.708 136.263L601.229 138.237ZM615.455 153.224C621.417 156.731 627.765 158.5 634.469 158.5V154.5C628.506 154.5 622.854 152.936 617.483 149.776L615.455 153.224ZM634.469 158.5C641.31 158.5 647.729 156.829 653.694 153.496L651.743 150.004C646.375 153.004 640.628 154.5 634.469 154.5V158.5ZM653.733 153.474C659.721 149.952 664.468 145.019 667.967 138.721L664.47 136.779C661.302 142.481 657.05 146.882 651.705 150.026L653.733 153.474ZM667.978 138.701C671.5 132.186 673.219 124.512 673.219 115.75H669.219C669.219 123.988 667.604 130.98 664.459 136.799L667.978 138.701ZM739.902 78L738.13 77.073L738.125 77.0838L738.119 77.0946L739.902 78ZM762.652 53L761.619 51.2876L761.612 51.2916L761.606 51.2957L762.652 53ZM821.902 50.5L820.947 52.2572L820.955 52.2615L820.963 52.2657L821.902 50.5ZM840.652 66.25L839.042 67.4364L842.652 72.3358V66.25H840.652ZM840.652 46.5V44.5H838.652V46.5H840.652ZM875.902 46.5H877.902V44.5H875.902V46.5ZM875.902 185V187H877.902V185H875.902ZM840.652 185H838.652V187H840.652V185ZM840.652 164.75H842.652V158.347L839.008 163.612L840.652 164.75ZM821.902 181L822.842 182.766L822.848 182.762L822.855 182.759L821.902 181ZM762.652 178.25L761.584 179.941L761.591 179.945L761.598 179.949L762.652 178.25ZM739.902 153L738.113 153.894L738.122 153.911L738.13 153.927L739.902 153ZM835.652 94L833.893 94.951L833.898 94.9612L833.904 94.9713L835.652 94ZM822.152 80L821.138 81.7239L821.157 81.7351L821.177 81.7459L822.152 80ZM785.902 79.75L784.904 78.0167V78.0168L785.902 79.75ZM772.402 93.75L770.663 92.7628L770.658 92.7707L770.654 92.7787L772.402 93.75ZM772.402 137.25L770.633 138.181L770.647 138.21L770.663 138.237L772.402 137.25ZM785.902 151.5L784.866 153.21L784.877 153.217L784.888 153.224L785.902 151.5ZM822.152 151.75L823.128 153.496L823.147 153.485L823.166 153.474L822.152 151.75ZM835.652 137.75L837.401 138.721L837.406 138.711L837.412 138.701L835.652 137.75ZM733.652 115.25C733.652 101.517 736.348 89.4182 741.686 78.9054L738.119 77.0946C732.456 88.2484 729.652 100.983 729.652 115.25H733.652ZM741.675 78.927C747.191 68.3816 754.536 60.3308 763.699 54.7043L761.606 51.2957C751.769 57.3358 743.947 65.9517 738.13 77.073L741.675 78.927ZM763.686 54.7124C773.025 49.0764 783.415 46.25 794.902 46.25V42.25C782.723 42.25 771.613 45.2569 761.619 51.2876L763.686 54.7124ZM794.902 46.25C804.964 46.25 813.623 48.2769 820.947 52.2572L822.857 48.7427C814.848 44.3898 805.508 42.25 794.902 42.25V46.25ZM820.963 52.2657C828.566 56.31 834.575 61.3731 839.042 67.4364L842.262 65.0636C837.397 58.4603 830.905 53.0234 822.842 48.7342L820.963 52.2657ZM842.652 66.25V46.5H838.652V66.25H842.652ZM840.652 48.5H875.902V44.5H840.652V48.5ZM873.902 46.5V185H877.902V46.5H873.902ZM875.902 183H840.652V187H875.902V183ZM842.652 185V164.75H838.652V185H842.652ZM839.008 163.612C834.712 169.817 828.715 175.035 820.95 179.241L822.855 182.759C831.089 178.298 837.593 172.683 842.297 165.888L839.008 163.612ZM820.963 179.234C813.463 183.224 804.712 185.25 794.652 185.25V189.25C805.259 189.25 814.675 187.11 822.842 182.766L820.963 179.234ZM794.652 185.25C783.348 185.25 773.049 182.349 763.707 176.551L761.598 179.949C771.589 186.151 782.623 189.25 794.652 189.25V185.25ZM763.72 176.559C754.544 170.764 747.193 162.622 741.675 152.073L738.13 153.927C743.945 165.044 751.76 173.736 761.584 179.941L763.72 176.559ZM741.691 152.106C736.35 141.423 733.652 129.153 733.652 115.25H729.652C729.652 129.68 732.455 142.577 738.113 153.894L741.691 152.106ZM842.652 115.75C842.652 106.99 840.934 99.3887 837.401 93.0287L833.904 94.9713C837.037 100.611 838.652 107.51 838.652 115.75H842.652ZM837.412 93.049C833.913 86.5761 829.153 81.6208 823.128 78.2541L821.177 81.7459C826.485 84.7125 830.725 89.0905 833.893 94.951L837.412 93.049ZM823.166 78.2761C817.196 74.7642 810.763 73 803.902 73V77C810.042 77 815.775 78.5692 821.138 81.7239L823.166 78.2761ZM803.902 73C797.061 73 790.716 74.6709 784.904 78.0167L786.9 81.4832C792.089 78.4957 797.744 77 803.902 77V73ZM784.904 78.0168C779.06 81.3817 774.318 86.323 770.663 92.7628L774.142 94.7372C777.487 88.8436 781.745 84.4516 786.9 81.4832L784.904 78.0168ZM770.654 92.7787C767.124 99.1332 765.402 106.649 765.402 115.25H769.402C769.402 107.184 771.014 100.367 774.151 94.7213L770.654 92.7787ZM765.402 115.25C765.402 123.854 767.125 131.517 770.633 138.181L774.172 136.318C771.013 130.316 769.402 123.312 769.402 115.25H765.402ZM770.663 138.237C774.314 144.67 779.044 149.682 784.866 153.21L786.939 149.79C781.76 146.651 777.491 142.164 774.142 136.263L770.663 138.237ZM784.888 153.224C790.85 156.731 797.198 158.5 803.902 158.5V154.5C797.94 154.5 792.288 152.936 786.916 149.776L784.888 153.224ZM803.902 158.5C810.743 158.5 817.163 156.829 823.128 153.496L821.177 150.004C815.809 153.004 810.061 154.5 803.902 154.5V158.5ZM823.166 153.474C829.154 149.952 833.902 145.019 837.401 138.721L833.904 136.779C830.736 142.481 826.484 146.882 821.138 150.026L823.166 153.474ZM837.412 138.701C840.933 132.186 842.652 124.512 842.652 115.75H838.652C838.652 123.988 837.038 130.98 833.893 136.799L837.412 138.701Z" fill="#EC008C"/>
</svg>
