<svg width="1181" height="251" viewBox="0 0 1181 251" fill="none" xmlns="http://www.w3.org/2000/svg">
<path d="M35.25 38.75V36.75H33.25V38.75H35.25ZM35.25 82.5H33.25V84.5H35.25V82.5ZM94 82.5H96V80.5H94V82.5ZM94 110.25V112.25H96V110.25H94ZM35.25 110.25V108.25H33.25V110.25H35.25ZM35.25 156.5H33.25V158.5H35.25V156.5ZM101.5 156.5H103.5V154.5H101.5V156.5ZM101.5 185V187H103.5V185H101.5ZM0.250002 185H-1.75V187H0.250002V185ZM0.250002 10.25V8.24998H-1.75V10.25H0.250002ZM101.5 10.25H103.5V8.24998H101.5V10.25ZM101.5 38.75V40.75H103.5V38.75H101.5ZM33.25 38.75V82.5H37.25V38.75H33.25ZM35.25 84.5H94V80.5H35.25V84.5ZM92 82.5V110.25H96V82.5H92ZM94 108.25H35.25V112.25H94V108.25ZM33.25 110.25V156.5H37.25V110.25H33.25ZM35.25 158.5H101.5V154.5H35.25V158.5ZM99.5 156.5V185H103.5V156.5H99.5ZM101.5 183H0.250002V187H101.5V183ZM2.25 185V10.25H-1.75V185H2.25ZM0.250002 12.25H101.5V8.24998H0.250002V12.25ZM99.5 10.25V38.75H103.5V10.25H99.5ZM101.5 36.75H35.25V40.75H101.5V36.75ZM209.807 185L208.14 186.105L208.733 187H209.807V185ZM181.307 142L182.974 140.895L181.204 138.225L179.582 140.987L181.307 142ZM156.057 185V187H157.202L157.781 186.013L156.057 185ZM118.557 185L116.881 183.909L114.868 187H118.557V185ZM163.807 115.5L165.483 116.591L166.2 115.49L165.474 114.395L163.807 115.5ZM118.057 46.5V44.5H114.331L116.39 47.6052L118.057 46.5ZM157.557 46.5L159.225 45.3974L158.632 44.5H157.557V46.5ZM185.807 89.25L184.138 90.3526L185.893 93.0088L187.524 90.2746L185.807 89.25ZM211.307 46.5V44.5H210.171L209.589 45.4754L211.307 46.5ZM248.807 46.5L250.476 47.601L252.521 44.5H248.807V46.5ZM203.307 115.5L201.637 114.399L200.91 115.502L201.639 116.604L203.307 115.5ZM249.307 185V187H253.029L250.974 183.896L249.307 185ZM211.474 183.895L182.974 140.895L179.64 143.105L208.14 186.105L211.474 183.895ZM179.582 140.987L154.332 183.987L157.781 186.013L183.031 143.013L179.582 140.987ZM156.057 183H118.557V187H156.057V183ZM120.233 186.091L165.483 116.591L162.131 114.409L116.881 183.909L120.233 186.091ZM165.474 114.395L119.724 45.3948L116.39 47.6052L162.14 116.605L165.474 114.395ZM118.057 48.5H157.557V44.5H118.057V48.5ZM155.888 47.6026L184.138 90.3526L187.475 88.1474L159.225 45.3974L155.888 47.6026ZM187.524 90.2746L213.024 47.5246L209.589 45.4754L184.089 88.2254L187.524 90.2746ZM211.307 48.5H248.807V44.5H211.307V48.5ZM247.137 45.399L201.637 114.399L204.976 116.601L250.476 47.601L247.137 45.399ZM201.639 116.604L247.639 186.104L250.974 183.896L204.974 114.396L201.639 116.604ZM249.307 183H209.807V187H249.307V183ZM303.316 66.5H301.316V72.7678L304.947 67.6584L303.316 66.5ZM321.816 50.75L322.756 52.5157L322.762 52.5122L322.769 52.5086L321.816 50.75ZM381.066 53L380.02 54.7043L380.026 54.7084L380.033 54.7124L381.066 53ZM403.816 78L402.033 78.9054L402.041 78.9219L402.05 78.9383L403.816 78ZM403.816 153L402.038 152.084L402.033 152.095L403.816 153ZM381.066 178.25L380.012 176.551L380.005 176.555L379.998 176.559L381.066 178.25ZM322.066 181L321.111 182.757L321.119 182.762L321.127 182.766L322.066 181ZM303.316 165.25L304.906 164.037L301.316 159.333V165.25H303.316ZM303.316 251V253H305.316V251H303.316ZM268.316 251H266.316V253H268.316V251ZM268.316 46.5V44.5H266.316V46.5H268.316ZM303.316 46.5H305.316V44.5H303.316V46.5ZM371.316 93.75L369.557 94.701L369.572 94.7296L369.589 94.7577L371.316 93.75ZM357.816 79.75L356.818 81.4832L356.83 81.4896L356.841 81.4959L357.816 79.75ZM321.816 80L322.814 81.7332L322.822 81.7286L322.83 81.7239L321.816 80ZM308.316 94L306.577 93.0128L306.567 93.0308L306.557 93.049L308.316 94ZM308.316 137.5L306.557 138.451L306.567 138.469L306.577 138.487L308.316 137.5ZM321.816 151.75L320.78 153.46L320.81 153.479L320.841 153.496L321.816 151.75ZM357.816 151.5L356.802 149.776L356.791 149.783L356.78 149.79L357.816 151.5ZM371.316 137.25L369.577 136.263L369.567 136.281L369.557 136.299L371.316 137.25ZM304.947 67.6584C309.243 61.6123 315.158 56.5573 322.756 52.5157L320.877 48.9843C312.809 53.2761 306.39 58.721 301.686 65.3416L304.947 67.6584ZM322.769 52.5086C330.443 48.3516 339.193 46.25 349.066 46.25V42.25C338.607 42.25 329.189 44.4817 320.864 48.9914L322.769 52.5086ZM349.066 46.25C360.554 46.25 370.854 49.0764 380.02 54.7043L382.113 51.2957C372.279 45.257 361.246 42.25 349.066 42.25V46.25ZM380.033 54.7124C389.355 60.3374 396.689 68.3795 402.033 78.9054L405.6 77.0946C399.944 65.9538 392.112 57.3292 382.1 51.2876L380.033 54.7124ZM402.05 78.9383C407.539 89.2699 410.316 101.354 410.316 115.25H414.316C414.316 100.813 411.427 88.0635 405.583 77.0617L402.05 78.9383ZM410.316 115.25C410.316 129.144 407.539 141.406 402.038 152.084L405.594 153.916C411.427 142.594 414.316 129.689 414.316 115.25H410.316ZM402.033 152.095C396.687 162.625 389.346 170.757 380.012 176.551L382.121 179.949C392.12 173.743 399.946 165.042 405.6 153.905L402.033 152.095ZM379.998 176.559C370.835 182.346 360.543 185.25 349.066 185.25V189.25C361.257 189.25 372.297 186.154 382.134 179.941L379.998 176.559ZM349.066 185.25C339.179 185.25 330.51 183.226 323.006 179.234L321.127 182.766C329.289 187.107 338.62 189.25 349.066 189.25V185.25ZM323.021 179.243C315.579 175.198 309.553 170.125 304.906 164.037L301.727 166.463C306.746 173.041 313.221 178.469 321.111 182.757L323.021 179.243ZM301.316 165.25V251H305.316V165.25H301.316ZM303.316 249H268.316V253H303.316V249ZM270.316 251V46.5H266.316V251H270.316ZM268.316 48.5H303.316V44.5H268.316V48.5ZM301.316 46.5V66.5H305.316V46.5H301.316ZM378.566 115.25C378.566 106.633 376.755 99.104 373.044 92.7422L369.589 94.7577C372.878 100.396 374.566 107.2 374.566 115.25H378.566ZM373.076 92.799C369.577 86.3261 364.817 81.3708 358.792 78.0041L356.841 81.4959C362.15 84.4625 366.389 88.8405 369.557 94.701L373.076 92.799ZM358.814 78.0168C353.003 74.6709 346.658 73 339.816 73V77C345.975 77 351.63 78.4957 356.818 81.4832L358.814 78.0168ZM339.816 73C333.113 73 326.764 74.7692 320.802 78.2761L322.83 81.7239C328.202 78.5641 333.854 77 339.816 77V73ZM320.818 78.2668C314.974 81.6317 310.232 86.573 306.577 93.0128L310.056 94.9872C313.401 89.0936 317.659 84.7016 322.814 81.7332L320.818 78.2668ZM306.557 93.049C303.038 99.5583 301.316 107.147 301.316 115.75H305.316C305.316 107.686 306.928 100.775 310.076 94.951L306.557 93.049ZM301.316 115.75C301.316 124.353 303.038 131.942 306.557 138.451L310.076 136.549C306.928 130.725 305.316 123.814 305.316 115.75H301.316ZM306.577 138.487C310.228 144.92 314.958 149.932 320.78 153.46L322.853 150.04C317.674 146.901 313.405 142.414 310.056 136.513L306.577 138.487ZM320.841 153.496C326.798 156.825 333.133 158.5 339.816 158.5V154.5C333.833 154.5 328.168 153.008 322.792 150.004L320.841 153.496ZM339.816 158.5C346.678 158.5 353.037 156.735 358.853 153.21L356.78 149.79C351.596 152.931 345.955 154.5 339.816 154.5V158.5ZM358.83 153.224C364.832 149.693 369.581 144.666 373.076 138.201L369.557 136.299C366.385 142.167 362.134 146.64 356.802 149.776L358.83 153.224ZM373.056 138.237C376.758 131.715 378.566 124.027 378.566 115.25H374.566C374.566 123.473 372.875 130.452 369.577 136.263L373.056 138.237ZM472.75 0H474.75V-2H472.75V0ZM472.75 185V187H474.75V185H472.75ZM437.75 185H435.75V187H437.75V185ZM437.75 0V-2H435.75V0H437.75ZM470.75 0V185H474.75V0H470.75ZM472.75 183H437.75V187H472.75V183ZM439.75 185V0H435.75V185H439.75ZM437.75 2H472.75V-2H437.75V2ZM532.83 178.5L531.85 180.243L531.86 180.249L531.87 180.255L532.83 178.5ZM507.58 153.25L505.831 154.219L505.836 154.229L505.842 154.239L507.58 153.25ZM507.83 78.25L506.104 77.2406L506.098 77.2506L506.092 77.2606L507.83 78.25ZM533.58 53.25L534.528 55.0109L534.539 55.0053L534.549 54.9996L533.58 53.25ZM606.08 53.25L605.111 54.9996L605.121 55.0053L605.132 55.0109L606.08 53.25ZM631.58 78.25L629.842 79.2394L629.848 79.2494L629.854 79.2594L631.58 78.25ZM631.33 153.25L629.615 152.221L629.609 152.231L629.603 152.241L631.33 153.25ZM605.33 178.5L606.278 180.261L606.288 180.256L605.33 178.5ZM586.58 152.25L587.538 154.006L587.547 154.001L587.556 153.996L586.58 152.25ZM600.08 138.25L601.839 139.201L600.08 138.25ZM594.58 85.5L593.133 86.8801L593.149 86.8974L593.166 86.9142L594.58 85.5ZM544.08 85.5L542.633 84.1198L542.632 84.1207L544.08 85.5ZM543.83 146.25L542.349 147.594L542.365 147.612L542.382 147.629L543.83 146.25ZM568.83 185.25C555.799 185.25 544.134 182.402 533.79 176.745L531.87 180.255C542.859 186.264 555.195 189.25 568.83 189.25V185.25ZM533.811 176.757C523.466 170.938 515.309 162.785 509.318 152.261L505.842 154.239C512.185 165.382 520.861 174.062 531.85 180.243L533.811 176.757ZM509.33 152.281C503.516 141.785 500.58 129.627 500.58 115.75H496.58C496.58 130.206 499.644 143.049 505.831 154.219L509.33 152.281ZM500.58 115.75C500.58 101.882 503.596 89.732 509.568 79.2394L506.092 77.2606C499.731 88.4347 496.58 101.285 496.58 115.75H500.58ZM509.557 79.2594C515.708 68.7367 524.025 60.6664 534.528 55.0109L532.632 51.4891C521.468 57.5002 512.618 66.0966 506.104 77.2406L509.557 79.2594ZM534.549 54.9996C545.063 49.1763 556.809 46.25 569.83 46.25V42.25C556.185 42.25 543.764 45.3237 532.611 51.5004L534.549 54.9996ZM569.83 46.25C582.851 46.25 594.597 49.1763 605.111 54.9996L607.049 51.5004C595.897 45.3237 583.476 42.25 569.83 42.25V46.25ZM605.132 55.0109C615.63 60.6639 623.858 68.7277 629.842 79.2394L633.318 77.2606C626.968 66.1056 618.197 57.5028 607.028 51.4891L605.132 55.0109ZM629.854 79.2594C635.986 89.7485 639.08 101.891 639.08 115.75H643.08C643.08 101.275 639.841 88.4181 633.307 77.2406L629.854 79.2594ZM639.08 115.75C639.08 129.599 635.907 141.735 629.615 152.221L633.045 154.279C639.753 143.098 643.08 130.234 643.08 115.75H639.08ZM629.603 152.241C623.453 162.76 615.052 170.919 604.372 176.744L606.288 180.256C617.608 174.081 626.54 165.406 633.057 154.259L629.603 152.241ZM604.382 176.739C593.868 182.401 582.032 185.25 568.83 185.25V189.25C582.628 189.25 595.126 186.266 606.278 180.261L604.382 176.739ZM568.83 158.75C575.494 158.75 581.741 157.168 587.538 154.006L585.622 150.494C580.419 153.332 574.833 154.75 568.83 154.75V158.75ZM587.556 153.996C593.58 150.629 598.341 145.674 601.839 139.201L598.321 137.299C595.153 143.159 590.913 147.537 585.604 150.504L587.556 153.996ZM601.839 139.201C605.367 132.676 607.08 124.831 607.08 115.75H603.08C603.08 124.336 601.46 131.491 598.321 137.299L601.839 139.201ZM607.08 115.75C607.08 102.234 603.48 91.5719 595.994 84.0858L593.166 86.9142C599.68 93.4281 603.08 102.933 603.08 115.75H607.08ZM596.028 84.1198C588.813 76.5529 579.871 72.75 569.33 72.75V76.75C578.789 76.75 586.681 80.1137 593.133 86.8801L596.028 84.1198ZM569.33 72.75C558.789 72.75 549.848 76.5529 542.633 84.1198L545.528 86.8801C551.979 80.1137 559.871 76.75 569.33 76.75V72.75ZM542.632 84.1207C535.499 91.6101 532.08 102.259 532.08 115.75H536.08C536.08 102.908 539.328 93.3899 545.528 86.8793L542.632 84.1207ZM532.08 115.75C532.08 129.232 535.41 139.944 542.349 147.594L545.312 144.906C539.25 138.223 536.08 128.601 536.08 115.75H532.08ZM542.382 147.629C549.44 155.041 558.304 158.75 568.83 158.75V154.75C559.356 154.75 551.553 151.459 545.278 144.871L542.382 147.629ZM701.754 68H699.754V75.0832L703.459 69.046L701.754 68ZM719.254 50.75L718.266 49.0111L718.257 49.016L718.249 49.021L719.254 50.75ZM744.254 44.5H746.254V42.5H744.254V44.5ZM744.254 81.25V83.25H746.254V81.25H744.254ZM710.004 89L708.656 87.5221L708.645 87.5321L708.635 87.5423L710.004 89ZM701.754 185V187H703.754V185H701.754ZM666.754 185H664.754V187H666.754V185ZM666.754 46.5V44.5H664.754V46.5H666.754ZM701.754 46.5H703.754V44.5H701.754V46.5ZM703.459 69.046C707.792 61.9836 713.39 56.473 720.259 52.479L718.249 49.021C710.785 53.3604 704.716 59.3497 700.049 66.954L703.459 69.046ZM720.242 52.4889C727.243 48.5111 735.229 46.5 744.254 46.5V42.5C734.612 42.5 725.932 44.6555 718.266 49.0111L720.242 52.4889ZM742.254 44.5V81.25H746.254V44.5H742.254ZM744.254 79.25H735.004V83.25H744.254V79.25ZM735.004 79.25C723.72 79.25 714.824 81.8985 708.656 87.5221L711.351 90.4779C716.517 85.7682 724.288 83.25 735.004 83.25V79.25ZM708.635 87.5423C702.526 93.2802 699.754 102.981 699.754 116H703.754C703.754 103.353 706.481 95.0531 711.373 90.4577L708.635 87.5423ZM699.754 116V185H703.754V116H699.754ZM701.754 183H666.754V187H701.754V183ZM668.754 185V46.5H664.754V185H668.754ZM666.754 48.5H701.754V44.5H666.754V48.5ZM699.754 46.5V68H703.754V46.5H699.754ZM895.578 126.25V128.25H897.272L897.551 126.579L895.578 126.25ZM794.328 126.25V124.25H792.155L792.335 126.416L794.328 126.25ZM804.828 149.75L803.475 151.223L804.828 149.75ZM855.328 141.5V139.5H854.084L853.534 140.616L855.328 141.5ZM893.078 141.5L894.994 142.075L895.766 139.5H893.078V141.5ZM870.078 174.5L871.278 176.1L871.286 176.094L871.293 176.089L870.078 174.5ZM792.328 178.5L791.336 180.236L791.352 180.246L791.369 180.255L792.328 178.5ZM767.578 153.25L765.817 154.198L765.823 154.209L765.829 154.219L767.578 153.25ZM767.578 78L765.817 77.0518L767.578 78ZM792.078 53L793.049 54.7483L792.078 53ZM863.578 52.75L862.616 54.5036L862.628 54.51L863.578 52.75ZM887.828 77L886.068 77.9499L886.077 77.9666L886.086 77.9832L887.828 77ZM860.328 102.75V104.75H862.365L862.328 102.713L860.328 102.75ZM850.578 81.25L849.267 82.7601L849.278 82.77L849.29 82.7798L850.578 81.25ZM805.328 81L806.654 82.4972L806.657 82.4948L805.328 81ZM794.578 102.75L792.598 102.467L792.272 104.75H794.578V102.75ZM894.578 112.75C894.578 117.664 894.25 122.051 893.605 125.921L897.551 126.579C898.239 122.449 898.578 117.836 898.578 112.75H894.578ZM895.578 124.25H794.328V128.25H895.578V124.25ZM792.335 126.416C793.201 136.812 796.868 145.151 803.475 151.223L806.181 148.277C800.455 143.016 797.122 135.688 796.321 126.084L792.335 126.416ZM803.475 151.223C810.04 157.255 818.118 160.25 827.578 160.25V156.25C819.039 156.25 811.95 153.578 806.181 148.277L803.475 151.223ZM827.578 160.25C834.368 160.25 840.304 158.79 845.299 155.775C850.299 152.757 854.23 148.257 857.122 142.384L853.534 140.616C850.927 145.91 847.482 149.785 843.232 152.35C838.977 154.919 833.788 156.25 827.578 156.25V160.25ZM855.328 143.5H893.078V139.5H855.328V143.5ZM891.162 140.925C887.287 153.845 879.871 164.494 868.863 172.911L871.293 176.089C882.952 167.173 890.87 155.822 894.994 142.075L891.162 140.925ZM868.878 172.9C857.946 181.099 844.469 185.25 828.328 185.25V189.25C845.187 189.25 859.544 184.901 871.278 176.1L868.878 172.9ZM828.328 185.25C815.297 185.25 803.632 182.402 793.288 176.745L791.369 180.255C802.357 186.264 814.693 189.25 828.328 189.25V185.25ZM793.32 176.764C783.146 170.95 775.155 162.802 769.328 152.281L765.829 154.219C772.001 165.365 780.51 174.05 791.336 180.236L793.32 176.764ZM769.339 152.302C763.685 141.801 760.828 129.636 760.828 115.75H756.828C756.828 130.197 759.805 143.032 765.817 154.198L769.339 152.302ZM760.828 115.75C760.828 101.693 763.687 89.4454 769.339 78.9482L765.817 77.0518C759.803 88.2213 756.828 101.141 756.828 115.75H760.828ZM769.339 78.9482C774.996 68.4429 782.892 60.3912 793.049 54.7483L791.107 51.2517C780.264 57.2755 771.827 65.8904 765.817 77.0518L769.339 78.9482ZM793.049 54.7483C803.213 49.1017 814.954 46.25 828.328 46.25V42.25C814.369 42.25 801.943 45.2317 791.107 51.2517L793.049 54.7483ZM828.328 46.25C841.199 46.25 852.611 49.0168 862.616 54.5036L864.54 50.9964C853.878 45.1498 841.791 42.25 828.328 42.25V46.25ZM862.628 54.51C872.785 59.9914 880.587 67.7932 886.068 77.9499L889.588 76.0501C883.736 65.2068 875.371 56.8419 864.528 50.9899L862.628 54.51ZM886.086 77.9832C891.728 87.9772 894.578 99.5463 894.578 112.75H898.578C898.578 98.9536 895.595 86.6895 889.57 76.0168L886.086 77.9832ZM862.328 102.713C862.151 93.1927 858.683 85.4602 851.866 79.7202L849.29 82.7798C855.14 87.7065 858.171 94.3073 858.328 102.787L862.328 102.713ZM851.89 79.7399C845.158 73.8937 836.928 71 827.328 71V75C836.061 75 843.332 77.6063 849.267 82.7601L851.89 79.7399ZM827.328 71C818.214 71 810.396 73.8194 803.999 79.5052L806.657 82.4948C812.26 77.514 819.109 75 827.328 75V71ZM804.002 79.5028C797.743 85.0465 793.984 92.767 792.598 102.467L796.558 103.033C797.839 94.0663 801.247 87.2868 806.654 82.4972L804.002 79.5028ZM794.578 104.75H860.328V100.75H794.578V104.75ZM1008.95 180.5L1008.15 182.337L1008.17 182.341L1008.95 180.5ZM985.945 162.5L984.325 163.672L985.945 162.5ZM977.195 134.75V132.75H975.164L975.196 134.781L977.195 134.75ZM1014.7 134.75L1016.69 134.611L1016.56 132.75H1014.7V134.75ZM1022.2 151.75L1020.84 153.218L1020.85 153.23L1020.86 153.242L1022.2 151.75ZM1060.45 152.25L1061.71 153.795L1061.73 153.782L1061.75 153.769L1060.45 152.25ZM1062.7 124L1061.25 125.378L1062.7 124ZM1050.7 116.25L1049.91 118.088L1049.95 118.105L1049.99 118.12L1050.7 116.25ZM1031.2 109.75L1030.63 111.669L1030.64 111.672L1030.66 111.676L1031.2 109.75ZM1003.45 100L1002.59 101.806L1002.61 101.818L1002.64 101.829L1003.45 100ZM985.195 85.25L983.595 86.45L983.612 86.4725L983.63 86.4945L985.195 85.25ZM985.445 31.75L987.104 32.8677L985.445 31.75ZM1007.2 14.25L1007.98 16.0883L1008 16.0824L1008.01 16.0763L1007.2 14.25ZM1082.95 21.25L1081.7 22.8186L1081.72 22.8287L1081.73 22.8387L1082.95 21.25ZM1101.7 57.75V59.75H1103.85L1103.69 57.6015L1101.7 57.75ZM1063.2 57.75L1061.2 57.8609L1061.3 59.75H1063.2V57.75ZM1055.45 43L1054.14 44.5185L1054.17 44.5433L1054.2 44.567L1055.45 43ZM1020.2 42.25L1018.91 40.7186L1018.89 40.7316L1018.88 40.7448L1020.2 42.25ZM1018.7 69.25L1017.24 70.6255L1017.28 70.6647L1017.32 70.7019L1018.7 69.25ZM1030.2 76.75L1029.38 78.5776L1029.42 78.5954L1029.46 78.6115L1030.2 76.75ZM1049.7 83.25L1049.12 85.1657L1049.13 85.1687L1049.7 83.25ZM1095.95 108.25L1094.36 109.475L1095.95 108.25ZM1096.45 160.5L1094.73 159.466V159.466L1096.45 160.5ZM1075.2 179.75L1076.09 181.539L1076.1 181.533L1076.11 181.526L1075.2 179.75ZM1041.95 184.75C1030.01 184.75 1019.28 182.707 1009.73 178.659L1008.17 182.341C1018.28 186.626 1029.55 188.75 1041.95 188.75V184.75ZM1009.74 178.663C1000.37 174.626 993.003 168.843 987.566 161.328L984.325 163.672C990.221 171.823 998.186 178.04 1008.15 182.337L1009.74 178.663ZM987.566 161.328C982.164 153.861 979.356 145.02 979.195 134.719L975.196 134.781C975.368 145.814 978.393 155.472 984.325 163.672L987.566 161.328ZM977.195 136.75H1014.7V132.75H977.195V136.75ZM1012.7 134.889C1013.23 142.471 1015.9 148.647 1020.84 153.218L1023.55 150.282C1019.49 146.52 1017.16 141.363 1016.69 134.611L1012.7 134.889ZM1020.86 153.242C1025.99 157.819 1032.85 160 1041.2 160V156C1033.55 156 1027.73 154.014 1023.53 150.258L1020.86 153.242ZM1041.2 160C1049.66 160 1056.58 158.012 1061.71 153.795L1059.18 150.705C1054.98 154.155 1049.06 156 1041.2 156V160ZM1061.75 153.769C1066.87 149.375 1069.45 143.647 1069.45 136.75H1065.45C1065.45 142.52 1063.35 147.125 1059.14 150.731L1061.75 153.769ZM1069.45 136.75C1069.45 131.139 1067.71 126.375 1064.15 122.622L1061.25 125.378C1064.01 128.292 1065.45 132.027 1065.45 136.75H1069.45ZM1064.15 122.622C1060.75 119.046 1056.48 116.307 1051.4 114.38L1049.99 118.12C1054.57 119.86 1058.31 122.288 1061.25 125.378L1064.15 122.622ZM1051.48 114.412C1046.7 112.361 1040.1 110.167 1031.73 107.824L1030.66 111.676C1038.95 114 1045.36 116.139 1049.91 118.088L1051.48 114.412ZM1031.76 107.831C1020.47 104.511 1011.31 101.289 1004.25 98.1706L1002.64 101.829C1009.91 105.044 1019.25 108.322 1030.63 111.669L1031.76 107.831ZM1004.31 98.1943C997.599 95.001 991.752 90.2844 986.761 84.0055L983.63 86.4945C988.972 93.2156 995.291 98.3323 1002.59 101.806L1004.31 98.1943ZM986.795 84.05C982.127 77.8257 979.695 69.4553 979.695 58.75H975.695C975.695 70.0447 978.264 79.341 983.595 86.45L986.795 84.05ZM979.695 58.75C979.695 48.7663 982.185 40.1659 987.104 32.8677L983.787 30.6323C978.372 38.6674 975.695 48.0671 975.695 58.75H979.695ZM987.104 32.8677C992.035 25.551 998.967 19.9523 1007.98 16.0883L1006.41 12.4117C996.757 16.5477 989.189 22.6156 983.787 30.6323L987.104 32.8677ZM1008.01 16.0763C1017.05 12.0423 1027.43 10 1039.2 10V6C1026.96 6 1016.01 8.12433 1006.38 12.4237L1008.01 16.0763ZM1039.2 10C1056.87 10 1070.98 14.3315 1081.7 22.8186L1084.19 19.6814C1072.58 10.5018 1057.52 6 1039.2 6V10ZM1081.73 22.8387C1092.56 31.1212 1098.57 42.7367 1099.7 57.8985L1103.69 57.6015C1102.49 41.4299 1096 28.7122 1084.16 19.6613L1081.73 22.8387ZM1101.7 55.75H1063.2V59.75H1101.7V55.75ZM1065.19 57.6391C1064.83 51.0511 1061.96 45.6108 1056.69 41.433L1054.2 44.567C1058.6 48.0558 1060.9 52.4489 1061.2 57.8609L1065.19 57.6391ZM1056.75 41.4815C1051.63 37.0932 1044.87 35 1036.7 35V39C1044.19 39 1049.93 40.9068 1054.14 44.5185L1056.75 41.4815ZM1036.7 35C1029.52 35 1023.52 36.8449 1018.91 40.7186L1021.48 43.7814C1025.2 40.6551 1030.21 39 1036.7 39V35ZM1018.88 40.7448C1014.34 44.7176 1012.2 50.4147 1012.2 57.5H1016.2C1016.2 51.2519 1018.05 46.7823 1021.51 43.7551L1018.88 40.7448ZM1012.2 57.5C1012.2 62.6392 1013.87 67.0598 1017.24 70.6255L1020.15 67.8745C1017.53 65.1069 1016.2 61.6942 1016.2 57.5H1012.2ZM1017.32 70.7019C1020.67 73.877 1024.7 76.4971 1029.38 78.5776L1031.01 74.9224C1026.69 73.0029 1023.05 70.623 1020.07 67.7981L1017.32 70.7019ZM1029.46 78.6115C1034.21 80.4745 1040.77 82.6595 1049.12 85.1656L1050.27 81.3344C1041.96 78.8405 1035.52 76.6922 1030.93 74.8885L1029.46 78.6115ZM1049.13 85.1687C1060.41 88.4863 1069.56 91.7872 1076.6 95.0634L1078.29 91.4366C1071 88.0462 1061.65 84.6804 1050.26 81.3313L1049.13 85.1687ZM1076.6 95.0634C1083.46 98.2533 1089.38 103.043 1094.36 109.475L1097.53 107.025C1092.18 100.123 1085.76 94.9134 1078.29 91.4366L1076.6 95.0634ZM1094.36 109.475C1099.19 115.702 1101.7 123.983 1101.7 134.5H1105.7C1105.7 123.351 1103.03 114.131 1097.53 107.025L1094.36 109.475ZM1101.7 134.5C1101.7 143.468 1099.38 151.777 1094.73 159.466L1098.16 161.534C1103.18 153.223 1105.7 144.198 1105.7 134.5H1101.7ZM1094.73 159.466C1090.11 167.112 1083.32 173.289 1074.28 177.974L1076.11 181.526C1085.73 176.545 1093.11 169.888 1098.16 161.534L1094.73 159.466ZM1074.3 177.961C1065.3 182.461 1054.54 184.75 1041.95 184.75V188.75C1055.02 188.75 1066.42 186.373 1076.09 181.539L1074.3 177.961ZM1191.79 152.75L1189.89 153.376L1191.79 159.142L1193.69 153.376L1191.79 152.75ZM1226.79 46.5V44.5H1225.34L1224.89 45.8743L1226.79 46.5ZM1264.04 46.5L1265.91 47.1941L1266.91 44.5H1264.04V46.5ZM1212.79 185V187H1214.18L1214.66 185.694L1212.79 185ZM1170.29 185L1168.41 185.691L1168.89 187H1170.29V185ZM1119.29 46.5V44.5H1116.42L1117.41 47.1911L1119.29 46.5ZM1156.79 46.5L1158.69 45.8743L1158.24 44.5H1156.79V46.5ZM1193.69 153.376L1228.69 47.1257L1224.89 45.8743L1189.89 152.124L1193.69 153.376ZM1226.79 48.5H1264.04V44.5H1226.79V48.5ZM1262.16 45.8059L1210.91 184.306L1214.66 185.694L1265.91 47.1941L1262.16 45.8059ZM1212.79 183H1170.29V187H1212.79V183ZM1172.17 184.309L1121.17 45.8089L1117.41 47.1911L1168.41 185.691L1172.17 184.309ZM1119.29 48.5H1156.79V44.5H1119.29V48.5ZM1154.89 47.1257L1189.89 153.376L1193.69 152.124L1158.69 45.8743L1154.89 47.1257ZM1378.27 10.5H1380.27V8.5H1378.27V10.5ZM1378.27 185V187H1380.27V185H1378.27ZM1343.27 185H1341.27V187H1343.27V185ZM1343.27 10.5V8.5H1341.27V10.5H1343.27ZM1376.27 10.5V185H1380.27V10.5H1376.27ZM1378.27 183H1343.27V187H1378.27V183ZM1345.27 185V10.5H1341.27V185H1345.27ZM1343.27 12.5H1378.27V8.5H1343.27V12.5ZM1447.85 66.5H1445.85V72.7678L1449.48 67.6584L1447.85 66.5ZM1466.35 50.75L1467.29 52.5157L1467.29 52.5122L1467.3 52.5086L1466.35 50.75ZM1525.6 53L1524.55 54.7043L1524.56 54.7084L1524.56 54.7124L1525.6 53ZM1548.35 78L1546.56 78.9054L1546.57 78.9219L1546.58 78.9383L1548.35 78ZM1548.35 153L1546.57 152.084L1546.56 152.095L1548.35 153ZM1525.6 178.25L1524.54 176.551L1524.54 176.555L1524.53 176.559L1525.6 178.25ZM1466.6 181L1465.64 182.757L1465.65 182.762L1465.66 182.766L1466.6 181ZM1447.85 165.25L1449.44 164.037L1445.85 159.333V165.25H1447.85ZM1447.85 251V253H1449.85V251H1447.85ZM1412.85 251H1410.85V253H1412.85V251ZM1412.85 46.5V44.5H1410.85V46.5H1412.85ZM1447.85 46.5H1449.85V44.5H1447.85V46.5ZM1515.85 93.75L1514.09 94.701L1514.1 94.7296L1514.12 94.7577L1515.85 93.75ZM1502.35 79.75L1501.35 81.4832L1501.36 81.4896L1501.37 81.4959L1502.35 79.75ZM1466.35 80L1467.35 81.7332L1467.35 81.7286L1467.36 81.7239L1466.35 80ZM1452.85 94L1451.11 93.0128L1451.1 93.0308L1451.09 93.049L1452.85 94ZM1452.85 137.5L1451.09 138.451L1451.1 138.469L1451.11 138.487L1452.85 137.5ZM1466.35 151.75L1465.31 153.46L1465.34 153.479L1465.37 153.496L1466.35 151.75ZM1502.35 151.5L1501.33 149.776L1501.32 149.783L1501.31 149.79L1502.35 151.5ZM1515.85 137.25L1514.11 136.263L1514.1 136.281L1514.09 136.299L1515.85 137.25ZM1449.48 67.6584C1453.77 61.6123 1459.69 56.5573 1467.29 52.5157L1465.41 48.9843C1457.34 53.2761 1450.92 58.721 1446.22 65.3416L1449.48 67.6584ZM1467.3 52.5086C1474.97 48.3516 1483.72 46.25 1493.6 46.25V42.25C1483.14 42.25 1473.72 44.4817 1465.4 48.9914L1467.3 52.5086ZM1493.6 46.25C1505.09 46.25 1515.39 49.0764 1524.55 54.7043L1526.64 51.2957C1516.81 45.257 1505.78 42.25 1493.6 42.25V46.25ZM1524.56 54.7124C1533.89 60.3374 1541.22 68.3795 1546.56 78.9054L1550.13 77.0946C1544.47 65.9538 1536.64 57.3292 1526.63 51.2876L1524.56 54.7124ZM1546.58 78.9383C1552.07 89.2699 1554.85 101.354 1554.85 115.25H1558.85C1558.85 100.813 1555.96 88.0635 1550.11 77.0617L1546.58 78.9383ZM1554.85 115.25C1554.85 129.144 1552.07 141.406 1546.57 152.084L1550.13 153.916C1555.96 142.594 1558.85 129.689 1558.85 115.25H1554.85ZM1546.56 152.095C1541.22 162.625 1533.88 170.757 1524.54 176.551L1526.65 179.949C1536.65 173.743 1544.48 165.042 1550.13 153.905L1546.56 152.095ZM1524.53 176.559C1515.37 182.346 1505.07 185.25 1493.6 185.25V189.25C1505.79 189.25 1516.83 186.154 1526.67 179.941L1524.53 176.559ZM1493.6 185.25C1483.71 185.25 1475.04 183.226 1467.54 179.234L1465.66 182.766C1473.82 187.107 1483.15 189.25 1493.6 189.25V185.25ZM1467.55 179.243C1460.11 175.198 1454.08 170.125 1449.44 164.037L1446.26 166.463C1451.28 173.041 1457.75 178.469 1465.64 182.757L1467.55 179.243ZM1445.85 165.25V251H1449.85V165.25H1445.85ZM1447.85 249H1412.85V253H1447.85V249ZM1414.85 251V46.5H1410.85V251H1414.85ZM1412.85 48.5H1447.85V44.5H1412.85V48.5ZM1445.85 46.5V66.5H1449.85V46.5H1445.85ZM1523.1 115.25C1523.1 106.633 1521.29 99.104 1517.58 92.7422L1514.12 94.7577C1517.41 100.396 1519.1 107.2 1519.1 115.25H1523.1ZM1517.61 92.799C1514.11 86.3261 1509.35 81.3708 1503.32 78.0041L1501.37 81.4959C1506.68 84.4625 1510.92 88.8405 1514.09 94.701L1517.61 92.799ZM1503.35 78.0168C1497.53 74.6709 1491.19 73 1484.35 73V77C1490.51 77 1496.16 78.4957 1501.35 81.4832L1503.35 78.0168ZM1484.35 73C1477.64 73 1471.3 74.7692 1465.33 78.2761L1467.36 81.7239C1472.73 78.5641 1478.38 77 1484.35 77V73ZM1465.35 78.2668C1459.51 81.6317 1454.76 86.573 1451.11 93.0128L1454.59 94.9872C1457.93 89.0936 1462.19 84.7016 1467.35 81.7332L1465.35 78.2668ZM1451.09 93.049C1447.57 99.5583 1445.85 107.147 1445.85 115.75H1449.85C1449.85 107.686 1451.46 100.775 1454.61 94.951L1451.09 93.049ZM1445.85 115.75C1445.85 124.353 1447.57 131.942 1451.09 138.451L1454.61 136.549C1451.46 130.725 1449.85 123.814 1449.85 115.75H1445.85ZM1451.11 138.487C1454.76 144.92 1459.49 149.932 1465.31 153.46L1467.38 150.04C1462.21 146.901 1457.94 142.414 1454.59 136.513L1451.11 138.487ZM1465.37 153.496C1471.33 156.825 1477.66 158.5 1484.35 158.5V154.5C1478.36 154.5 1472.7 153.008 1467.32 150.004L1465.37 153.496ZM1484.35 158.5C1491.21 158.5 1497.57 156.735 1503.38 153.21L1501.31 149.79C1496.13 152.931 1490.49 154.5 1484.35 154.5V158.5ZM1503.36 153.224C1509.36 149.693 1514.11 144.666 1517.61 138.201L1514.09 136.299C1510.92 142.167 1506.67 146.64 1501.33 149.776L1503.36 153.224ZM1517.59 138.237C1521.29 131.715 1523.1 124.027 1523.1 115.25H1519.1C1519.1 123.473 1517.41 130.452 1514.11 136.263L1517.59 138.237ZM1617.28 66.75H1615.28V73.2878L1618.94 67.8689L1617.28 66.75ZM1635.78 50.5L1634.86 48.7262L1634.85 48.7302L1634.84 48.7342L1635.78 50.5ZM1695.03 53L1693.98 54.7043L1693.99 54.7084L1694 54.7124L1695.03 53ZM1717.78 78L1716 78.9054L1716.01 78.9219L1716.02 78.9383L1717.78 78ZM1717.78 153L1716 152.084L1716 152.095L1717.78 153ZM1695.03 178.25L1693.98 176.551L1693.97 176.555L1693.96 176.559L1695.03 178.25ZM1635.78 181.25L1634.83 183.007L1634.85 183.02L1634.87 183.031L1635.78 181.25ZM1617.28 165.25L1618.91 164.084L1615.28 159.035V165.25H1617.28ZM1617.28 185V187H1619.28V185H1617.28ZM1582.28 185H1580.28V187H1582.28V185ZM1582.28 0V-2H1580.28V0H1582.28ZM1617.28 0H1619.28V-2H1617.28V0ZM1685.28 93.75L1683.52 94.701L1683.54 94.7296L1683.55 94.7577L1685.28 93.75ZM1671.78 79.75L1670.78 81.4832L1670.79 81.4896L1670.81 81.4959L1671.78 79.75ZM1635.78 80L1636.78 81.7332L1636.79 81.7286L1636.8 81.7239L1635.78 80ZM1622.28 94L1620.54 93.0128L1620.53 93.0308L1620.52 93.049L1622.28 94ZM1622.28 137.5L1620.52 138.451L1620.53 138.469L1620.54 138.487L1622.28 137.5ZM1635.78 151.75L1634.74 153.46L1634.77 153.479L1634.81 153.496L1635.78 151.75ZM1671.78 151.5L1670.77 149.776L1670.76 149.783L1670.74 149.79L1671.78 151.5ZM1685.28 137.25L1683.54 136.263L1683.53 136.281L1683.52 136.299L1685.28 137.25ZM1618.94 67.8689C1623.24 61.5005 1629.15 56.2949 1636.72 52.2657L1634.84 48.7342C1626.75 53.0384 1620.32 58.6662 1615.62 65.631L1618.94 67.8689ZM1636.71 52.2738C1644.39 48.2737 1653.14 46.25 1663.03 46.25V42.25C1652.58 42.25 1643.18 44.3929 1634.86 48.7262L1636.71 52.2738ZM1663.03 46.25C1674.52 46.25 1684.82 49.0764 1693.98 54.7043L1696.08 51.2957C1686.24 45.257 1675.21 42.25 1663.03 42.25V46.25ZM1694 54.7124C1703.32 60.3374 1710.65 68.3795 1716 78.9054L1719.56 77.0946C1713.91 65.9538 1706.08 57.3292 1696.06 51.2876L1694 54.7124ZM1716.02 78.9383C1721.5 89.2699 1724.28 101.354 1724.28 115.25H1728.28C1728.28 100.813 1725.39 88.0635 1719.55 77.0617L1716.02 78.9383ZM1724.28 115.25C1724.28 129.144 1721.5 141.406 1716 152.084L1719.56 153.916C1725.39 142.594 1728.28 129.689 1728.28 115.25H1724.28ZM1716 152.095C1710.65 162.625 1703.31 170.757 1693.98 176.551L1696.09 179.949C1706.08 173.743 1713.91 165.042 1719.56 153.905L1716 152.095ZM1693.96 176.559C1684.8 182.346 1674.51 185.25 1663.03 185.25V189.25C1675.22 189.25 1686.26 186.154 1696.1 179.941L1693.96 176.559ZM1663.03 185.25C1652.96 185.25 1644.2 183.302 1636.69 179.469L1634.87 183.031C1643.03 187.198 1652.44 189.25 1663.03 189.25V185.25ZM1636.74 179.493C1629.31 175.457 1623.38 170.317 1618.91 164.084L1615.66 166.416C1620.51 173.183 1626.92 178.71 1634.83 183.007L1636.74 179.493ZM1615.28 165.25V185H1619.28V165.25H1615.28ZM1617.28 183H1582.28V187H1617.28V183ZM1584.28 185V0H1580.28V185H1584.28ZM1582.28 2H1617.28V-2H1582.28V2ZM1615.28 0V66.75H1619.28V0H1615.28ZM1692.53 115.25C1692.53 106.633 1690.72 99.104 1687.01 92.7422L1683.55 94.7577C1686.84 100.396 1688.53 107.2 1688.53 115.25H1692.53ZM1687.04 92.799C1683.54 86.3261 1678.78 81.3708 1672.76 78.0041L1670.81 81.4959C1676.11 84.4625 1680.35 88.8405 1683.52 94.701L1687.04 92.799ZM1672.78 78.0168C1666.97 74.6709 1660.62 73 1653.78 73V77C1659.94 77 1665.59 78.4957 1670.78 81.4832L1672.78 78.0168ZM1653.78 73C1647.08 73 1640.73 74.7692 1634.77 78.2761L1636.8 81.7239C1642.17 78.5641 1647.82 77 1653.78 77V73ZM1634.78 78.2668C1628.94 81.6317 1624.2 86.573 1620.54 93.0128L1624.02 94.9872C1627.37 89.0936 1631.62 84.7016 1636.78 81.7332L1634.78 78.2668ZM1620.52 93.049C1617 99.5583 1615.28 107.147 1615.28 115.75H1619.28C1619.28 107.686 1620.89 100.775 1624.04 94.951L1620.52 93.049ZM1615.28 115.75C1615.28 124.353 1617 131.942 1620.52 138.451L1624.04 136.549C1620.89 130.725 1619.28 123.814 1619.28 115.75H1615.28ZM1620.54 138.487C1624.19 144.92 1628.92 149.932 1634.74 153.46L1636.82 150.04C1631.64 146.901 1627.37 142.414 1624.02 136.513L1620.54 138.487ZM1634.81 153.496C1640.76 156.825 1647.1 158.5 1653.78 158.5V154.5C1647.8 154.5 1642.13 153.008 1636.76 150.004L1634.81 153.496ZM1653.78 158.5C1660.64 158.5 1667 156.735 1672.82 153.21L1670.74 149.79C1665.56 152.931 1659.92 154.5 1653.78 154.5V158.5ZM1672.8 153.224C1678.8 149.693 1683.55 144.666 1687.04 138.201L1683.52 136.299C1680.35 142.167 1676.1 146.64 1670.77 149.776L1672.8 153.224ZM1687.02 138.237C1690.72 131.715 1692.53 124.027 1692.53 115.25H1688.53C1688.53 123.473 1686.84 130.452 1683.54 136.263L1687.02 138.237Z" fill="#EC008C"/>
</svg>
