<svg width="20" height="23" viewBox="0 0 20 23" fill="none" xmlns="http://www.w3.org/2000/svg">
<path d="M6.78571 2.875H13.2143V1.07812C13.2143 0.48291 13.692 0 14.2857 0C14.8795 0 15.3571 0.48291 15.3571 1.07812V2.875H17.1429C18.7188 2.875 20 4.16201 20 5.75V20.125C20 21.7107 18.7188 23 17.1429 23H2.85714C1.27902 23 0 21.7107 0 20.125V5.75C0 4.16201 1.27902 2.875 2.85714 2.875H4.64286V1.07812C4.64286 0.48291 5.12054 0 5.71429 0C6.30804 0 6.78571 0.48291 6.78571 1.07812V2.875ZM2.14286 11.1406H5.71429V8.625H2.14286V11.1406ZM2.14286 13.2969V16.1719H5.71429V13.2969H2.14286ZM7.85714 13.2969V16.1719H12.1429V13.2969H7.85714ZM14.2857 13.2969V16.1719H17.8571V13.2969H14.2857ZM17.8571 8.625H14.2857V11.1406H17.8571V8.625ZM17.8571 18.3281H14.2857V20.8438H17.1429C17.5357 20.8438 17.8571 20.5203 17.8571 20.125V18.3281ZM12.1429 18.3281H7.85714V20.8438H12.1429V18.3281ZM5.71429 18.3281H2.14286V20.125C2.14286 20.5203 2.4625 20.8438 2.85714 20.8438H5.71429V18.3281ZM12.1429 8.625H7.85714V11.1406H12.1429V8.625Z" fill="#086AD8"/>
</svg>
