<svg width="18" height="18" viewBox="0 0 18 18" fill="none" xmlns="http://www.w3.org/2000/svg">
<path d="M16.0312 2H5.34375C4.25742 2 3.375 2.88348 3.375 3.96875V15.2188C3.375 15.6835 2.99637 16.0625 2.53125 16.0625C2.06613 16.0625 1.6875 15.6828 1.6875 15.2188V4.8125C1.6875 4.34668 1.30957 3.96875 0.84375 3.96875C0.37793 3.96875 0 4.34668 0 4.8125V15.2188C0 16.6145 1.13555 17.75 2.53125 17.75H14.9062C16.6124 17.75 18 16.3624 18 14.6562V3.96875C18 2.88348 17.1176 2 16.0312 2ZM16.3125 14.6562C16.3125 15.4318 15.6818 16.0625 14.9062 16.0625H4.91836C5.00977 15.7988 5.0625 15.5141 5.0625 15.2188V3.96875C5.0625 3.81385 5.18885 3.6875 5.34375 3.6875H16.0312C16.1861 3.6875 16.3125 3.81385 16.3125 3.96875V14.6562ZM9.28125 10.4375H7.03125C6.56719 10.4375 6.1875 10.8172 6.1875 11.2812C6.1875 11.7453 6.56719 12.125 7.03125 12.125H9.28125C9.74883 12.125 10.125 11.7488 10.125 11.2812C10.125 10.8137 9.74883 10.4375 9.28125 10.4375ZM14.3438 10.4375H12.0938C11.6297 10.4375 11.25 10.8172 11.25 11.2812C11.25 11.7453 11.6297 12.125 12.0938 12.125H14.3438C14.8096 12.125 15.1875 11.7471 15.1875 11.2812C15.1875 10.8154 14.8113 10.4375 14.3438 10.4375ZM9.28125 13.25H7.03125C6.56543 13.25 6.1875 13.6279 6.1875 14.0938C6.1875 14.5596 6.56543 14.9375 7.03125 14.9375H9.28125C9.74707 14.9375 10.125 14.5596 10.125 14.0938C10.125 13.6279 9.74883 13.25 9.28125 13.25ZM14.3438 13.25H12.0938C11.6297 13.25 11.25 13.6297 11.25 14.0938C11.25 14.5578 11.6279 14.9375 12.0938 14.9375H14.3438C14.8096 14.9375 15.1875 14.5596 15.1875 14.0938C15.1875 13.6279 14.8113 13.25 14.3438 13.25ZM14.0625 4.8125H7.3125C6.69129 4.8125 6.1875 5.31629 6.1875 5.9375V8.1875C6.1875 8.80871 6.69129 9.3125 7.3125 9.3125H14.0625C14.6837 9.3125 15.1875 8.80871 15.1875 8.1875V5.9375C15.1875 5.31523 14.6848 4.8125 14.0625 4.8125Z" fill="white"/>
</svg>
