<svg width="845" height="199" viewBox="0 0 845 199" fill="none" xmlns="http://www.w3.org/2000/svg">
<path d="M-308.75 21.5H-306.75V19.5H-308.75V21.5ZM-308.75 196V198H-306.75V196H-308.75ZM-343.75 196H-345.75V198H-343.75V196ZM-343.75 21.5V19.5H-345.75V21.5H-343.75ZM-310.75 21.5V196H-306.75V21.5H-310.75ZM-308.75 194H-343.75V198H-308.75V194ZM-341.75 196V21.5H-345.75V196H-341.75ZM-343.75 23.5H-308.75V19.5H-343.75V23.5ZM-157.42 71.25L-158.857 72.6412L-158.851 72.647L-158.846 72.6527L-157.42 71.25ZM-142.17 196V198H-140.17V196H-142.17ZM-177.17 196H-179.17V198H-177.17V196ZM-185.42 94.25L-186.894 95.6014L-186.885 95.6118L-186.875 95.622L-185.42 94.25ZM-230.92 94.25L-232.374 92.8768L-232.375 92.878L-230.92 94.25ZM-239.17 196V198H-237.17V196H-239.17ZM-274.17 196H-276.17V198H-274.17V196ZM-274.17 57.5V55.5H-276.17V57.5H-274.17ZM-239.17 57.5H-237.17V55.5H-239.17V57.5ZM-239.17 74.75H-241.17V80.5791L-237.591 75.9779L-239.17 74.75ZM-221.42 60.75L-220.576 62.5634L-220.567 62.5592L-220.558 62.555L-221.42 60.75ZM-197.42 57.5C-181.385 57.5 -168.597 62.5821 -158.857 72.6412L-155.983 69.8588C-166.577 58.9179 -180.455 53.5 -197.42 53.5V57.5ZM-158.846 72.6527C-149.144 82.5129 -144.17 96.4506 -144.17 114.75H-140.17C-140.17 95.716 -145.362 80.6537 -155.994 69.8473L-158.846 72.6527ZM-144.17 114.75V196H-140.17V114.75H-144.17ZM-142.17 194H-177.17V198H-142.17V194ZM-175.17 196V119.5H-179.17V196H-175.17ZM-175.17 119.5C-175.17 108.182 -178.002 99.202 -183.965 92.878L-186.875 95.622C-181.838 100.965 -179.17 108.818 -179.17 119.5H-175.17ZM-183.946 92.8985C-189.889 86.4153 -197.962 83.25 -207.92 83.25V87.25C-198.878 87.25 -191.951 90.0847 -186.894 95.6014L-183.946 92.8985ZM-207.92 83.25C-218.034 83.25 -226.264 86.4078 -232.374 92.8768L-229.466 95.6232C-224.242 90.0922 -217.139 87.25 -207.92 87.25V83.25ZM-232.375 92.878C-238.338 99.202 -241.17 108.182 -241.17 119.5H-237.17C-237.17 108.818 -234.502 100.965 -229.465 95.622L-232.375 92.878ZM-241.17 119.5V196H-237.17V119.5H-241.17ZM-239.17 194H-274.17V198H-239.17V194ZM-272.17 196V57.5H-276.17V196H-272.17ZM-274.17 59.5H-239.17V55.5H-274.17V59.5ZM-241.17 57.5V74.75H-237.17V57.5H-241.17ZM-237.591 75.9779C-233.128 70.2388 -227.467 65.7683 -220.576 62.5634L-222.263 58.9366C-229.706 62.3984 -235.879 67.2612 -240.749 73.5221L-237.591 75.9779ZM-220.558 62.555C-213.512 59.1918 -205.809 57.5 -197.42 57.5V53.5C-206.364 53.5 -214.661 55.3082 -222.281 58.945L-220.558 62.555ZM-45.3867 86.25V88.25H-43.3867V86.25H-45.3867ZM-69.6367 86.25V84.25H-71.6367V86.25H-69.6367ZM-69.6367 196V198H-67.6367V196H-69.6367ZM-105.137 196H-107.137V198H-105.137V196ZM-105.137 86.25H-103.137V84.25H-105.137V86.25ZM-120.887 86.25H-122.887V88.25H-120.887V86.25ZM-120.887 57.5V55.5H-122.887V57.5H-120.887ZM-105.137 57.5V59.5H-103.137V57.5H-105.137ZM-90.6367 13L-91.9119 11.4592L-90.6367 13ZM-46.8867 1.75H-44.8867V-0.199379L-46.8354 -0.249344L-46.8867 1.75ZM-46.8867 31.25L-46.9259 33.2496L-44.8867 33.2896V31.25H-46.8867ZM-64.6367 35.5L-65.9746 34.0134L-64.6367 35.5ZM-69.6367 57.5H-71.6367V59.5H-69.6367V57.5ZM-45.3867 57.5H-43.3867V55.5H-45.3867V57.5ZM-45.3867 84.25H-69.6367V88.25H-45.3867V84.25ZM-71.6367 86.25V196H-67.6367V86.25H-71.6367ZM-69.6367 194H-105.137V198H-69.6367V194ZM-103.137 196V86.25H-107.137V196H-103.137ZM-105.137 84.25H-120.887V88.25H-105.137V84.25ZM-118.887 86.25V57.5H-122.887V86.25H-118.887ZM-120.887 59.5H-105.137V55.5H-120.887V59.5ZM-103.137 57.5V50.5H-107.137V57.5H-103.137ZM-103.137 50.5C-103.137 33.8719 -98.4207 22.038 -89.3616 14.5408L-91.9119 11.4592C-102.186 19.962 -107.137 33.1281 -107.137 50.5H-103.137ZM-89.3616 14.5408C-80.2257 6.98007 -66.2108 3.25517 -46.938 3.74934L-46.8354 -0.249344C-66.5627 -0.755173 -81.7144 3.01991 -91.9119 11.4592L-89.3616 14.5408ZM-48.8867 1.75V31.25H-44.8867V1.75H-48.8867ZM-46.8475 29.2504C-55.4537 29.0816 -62.0453 30.477 -65.9746 34.0134L-63.2988 36.9866C-60.5614 34.523 -55.3197 33.085 -46.9259 33.2496L-46.8475 29.2504ZM-65.9746 34.0134C-69.9549 37.5956 -71.6367 43.7481 -71.6367 51.75H-67.6367C-67.6367 44.0852 -65.9852 39.4044 -63.2988 36.9866L-65.9746 34.0134ZM-71.6367 51.75V57.5H-67.6367V51.75H-71.6367ZM-69.6367 59.5H-45.3867V55.5H-69.6367V59.5ZM-47.3867 57.5V86.25H-43.3867V57.5H-47.3867ZM2.79492 189.5L1.81439 191.243L1.82483 191.249L1.8353 191.255L2.79492 189.5ZM-22.4551 164.25L-24.2047 165.219L-24.199 165.229L-24.1932 165.239L-22.4551 164.25ZM-22.2051 89.25L-23.9317 88.2406L-23.9375 88.2506L-23.9432 88.2606L-22.2051 89.25ZM3.54492 64.25L4.49313 66.0109L4.50357 66.0053L4.51392 65.9996L3.54492 64.25ZM76.0449 64.25L75.0759 65.9996L75.0863 66.0053L75.0967 66.0109L76.0449 64.25ZM101.545 89.25L99.8068 90.2394L99.8125 90.2494L99.8183 90.2594L101.545 89.25ZM101.295 164.25L99.5799 163.221L99.5741 163.231L99.5683 163.241L101.295 164.25ZM75.2949 189.5L76.2431 191.261L76.2526 191.256L75.2949 189.5ZM56.5449 163.25L57.5026 165.006L57.5116 165.001L57.5206 164.996L56.5449 163.25ZM70.0449 149.25L71.8044 150.201L70.0449 149.25ZM64.5449 96.5L63.0974 97.8801L63.1139 97.8974L63.1307 97.9142L64.5449 96.5ZM14.0449 96.5L12.5974 95.1198L12.5966 95.1207L14.0449 96.5ZM13.7949 157.25L12.3135 158.594L12.3298 158.612L12.3466 158.629L13.7949 157.25ZM38.7949 196.25C25.7638 196.25 14.0992 193.402 3.75455 187.745L1.8353 191.255C12.824 197.264 25.1594 200.25 38.7949 200.25V196.25ZM3.77545 187.757C-6.56888 181.938 -14.7263 173.785 -20.7169 163.261L-24.1932 165.239C-17.8506 176.382 -9.17462 185.062 1.81439 191.243L3.77545 187.757ZM-20.7055 163.281C-26.5189 152.785 -29.4551 140.627 -29.4551 126.75H-33.4551C-33.4551 141.206 -30.3913 154.049 -24.2047 165.219L-20.7055 163.281ZM-29.4551 126.75C-29.4551 112.882 -26.4397 100.732 -20.4669 90.2394L-23.9432 88.2606C-30.3038 99.4347 -33.4551 112.285 -33.4551 126.75H-29.4551ZM-20.4785 90.2594C-14.3268 79.7367 -6.00992 71.6664 4.49313 66.0109L2.59671 62.4891C-8.56693 68.5002 -17.4167 77.0966 -23.9317 88.2406L-20.4785 90.2594ZM4.51392 65.9996C15.0281 60.1763 26.7738 57.25 39.7949 57.25V53.25C26.1494 53.25 13.7284 56.3237 2.57593 62.5004L4.51392 65.9996ZM39.7949 57.25C52.816 57.25 64.5617 60.1763 75.0759 65.9996L77.0139 62.5004C65.8615 56.3237 53.4405 53.25 39.7949 53.25V57.25ZM75.0967 66.0109C85.595 71.6639 93.8232 79.7277 99.8068 90.2394L103.283 88.2606C96.9333 77.1056 88.1615 68.5028 76.9931 62.4891L75.0967 66.0109ZM99.8183 90.2594C105.95 100.749 109.045 112.891 109.045 126.75H113.045C113.045 112.275 109.806 99.4181 103.272 88.2406L99.8183 90.2594ZM109.045 126.75C109.045 140.599 105.872 152.735 99.5799 163.221L103.01 165.279C109.718 154.098 113.045 141.234 113.045 126.75H109.045ZM99.5683 163.241C93.4183 173.76 85.0173 181.919 74.3372 187.744L76.2526 191.256C87.5726 185.081 96.5049 176.406 103.022 165.259L99.5683 163.241ZM74.3467 187.739C63.8325 193.401 51.9968 196.25 38.7949 196.25V200.25C52.593 200.25 65.0907 197.266 76.2431 191.261L74.3467 187.739ZM38.7949 169.75C45.4591 169.75 51.7055 168.168 57.5026 165.006L55.5872 161.494C50.3843 164.332 44.7974 165.75 38.7949 165.75V169.75ZM57.5206 164.996C63.5452 161.629 68.3055 156.674 71.8044 150.201L68.2855 148.299C65.1177 154.159 60.878 158.537 55.5693 161.504L57.5206 164.996ZM71.8044 150.201C75.3315 143.676 77.0449 135.831 77.0449 126.75H73.0449C73.0449 135.336 71.4251 142.491 68.2855 148.299L71.8044 150.201ZM77.0449 126.75C77.0449 113.234 73.4453 102.572 65.9591 95.0858L63.1307 97.9142C69.6446 104.428 73.0449 113.933 73.0449 126.75H77.0449ZM65.9924 95.1198C58.7774 87.5529 49.8358 83.75 39.2949 83.75V87.75C48.7541 87.75 56.6458 91.1137 63.0974 97.8801L65.9924 95.1198ZM39.2949 83.75C28.7541 83.75 19.8124 87.5529 12.5974 95.1198L15.4924 97.8801C21.9441 91.1137 29.8358 87.75 39.2949 87.75V83.75ZM12.5966 95.1207C5.46387 102.61 2.04492 113.259 2.04492 126.75H6.04492C6.04492 113.908 9.29263 104.39 15.4932 97.8793L12.5966 95.1207ZM2.04492 126.75C2.04492 140.232 5.37534 150.944 12.3135 158.594L15.2764 155.906C9.21454 149.223 6.04492 139.601 6.04492 126.75H2.04492ZM12.3466 158.629C19.4052 166.041 28.2688 169.75 38.7949 169.75V165.75C29.321 165.75 21.518 162.459 15.2432 155.871L12.3466 158.629ZM171.719 79H169.719V86.0832L173.423 80.046L171.719 79ZM189.219 61.75L188.231 60.0111L188.222 60.016L188.214 60.021L189.219 61.75ZM214.219 55.5H216.219V53.5H214.219V55.5ZM214.219 92.25V94.25H216.219V92.25H214.219ZM179.969 100L178.621 98.5221L178.61 98.5321L178.599 98.5423L179.969 100ZM171.719 196V198H173.719V196H171.719ZM136.719 196H134.719V198H136.719V196ZM136.719 57.5V55.5H134.719V57.5H136.719ZM171.719 57.5H173.719V55.5H171.719V57.5ZM173.423 80.046C177.757 72.9836 183.354 67.473 190.224 63.479L188.214 60.021C180.75 64.3604 174.68 70.3497 170.014 77.954L173.423 80.046ZM190.207 63.4889C197.208 59.5111 205.194 57.5 214.219 57.5V53.5C204.577 53.5 195.896 55.6555 188.231 60.0111L190.207 63.4889ZM212.219 55.5V92.25H216.219V55.5H212.219ZM214.219 90.25H204.969V94.25H214.219V90.25ZM204.969 90.25C193.685 90.25 184.789 92.8985 178.621 98.5221L181.316 101.478C186.482 96.7682 194.252 94.25 204.969 94.25V90.25ZM178.599 98.5423C172.491 104.28 169.719 113.981 169.719 127H173.719C173.719 114.353 176.446 106.053 181.338 101.458L178.599 98.5423ZM169.719 127V196H173.719V127H169.719ZM171.719 194H136.719V198H171.719V194ZM138.719 196V57.5H134.719V196H138.719ZM136.719 59.5H171.719V55.5H136.719V59.5ZM169.719 57.5V79H173.719V57.5H169.719ZM450.793 71.25L449.367 72.6528L449.379 72.6643L449.39 72.6755L450.793 71.25ZM466.543 196V198H468.543V196H466.543ZM431.543 196H429.543V198H431.543V196ZM423.293 94.75L421.838 96.122L421.848 96.1326L421.858 96.1429L423.293 94.75ZM378.043 94.75L376.608 93.3564L376.608 93.357L378.043 94.75ZM369.793 196V198H371.793V196H369.793ZM334.793 196H332.793V198H334.793V196ZM326.543 94.75L325.088 96.122L325.098 96.1326L325.108 96.1429L326.543 94.75ZM281.043 94.75L279.608 93.3564L279.608 93.357L281.043 94.75ZM272.793 196V198H274.793V196H272.793ZM237.793 196H235.793V198H237.793V196ZM237.793 57.5V55.5H235.793V57.5H237.793ZM272.793 57.5H274.793V55.5H272.793V57.5ZM272.793 74.25H270.793V80.117L274.377 75.4716L272.793 74.25ZM290.043 60.5L289.2 58.6865L289.191 58.6904L289.183 58.6943L290.043 60.5ZM342.543 62.5L341.58 64.2531L341.594 64.2605L341.607 64.2676L342.543 62.5ZM362.293 82L360.54 82.9625L362.272 86.1171L364.036 82.9805L362.293 82ZM381.793 62.75L380.819 61.0033L380.812 61.0073L380.804 61.0114L381.793 62.75ZM409.793 57.5C426.347 57.5 439.469 62.5943 449.367 72.6528L452.218 69.8471C441.451 58.9057 427.239 53.5 409.793 53.5V57.5ZM449.39 72.6755C459.413 82.5388 464.543 96.4684 464.543 114.75H468.543C468.543 95.6983 463.173 80.6279 452.196 69.8245L449.39 72.6755ZM464.543 114.75V196H468.543V114.75H464.543ZM466.543 194H431.543V198H466.543V194ZM433.543 196V119.5H429.543V196H433.543ZM433.543 119.5C433.543 108.343 430.708 99.5177 424.728 93.357L421.858 96.1429C426.878 101.316 429.543 108.99 429.543 119.5H433.543ZM424.748 93.378C418.801 87.07 410.733 84 400.793 84V88C409.853 88 416.785 90.7633 421.838 96.122L424.748 93.378ZM400.793 84C390.851 84 382.715 87.07 376.608 93.3564L379.478 96.1436C384.704 90.7633 391.735 88 400.793 88V84ZM376.608 93.357C370.628 99.5177 367.793 108.343 367.793 119.5H371.793C371.793 108.99 374.458 101.316 379.478 96.1429L376.608 93.357ZM367.793 119.5V196H371.793V119.5H367.793ZM369.793 194H334.793V198H369.793V194ZM336.793 196V119.5H332.793V196H336.793ZM336.793 119.5C336.793 108.343 333.958 99.5177 327.978 93.357L325.108 96.1429C330.128 101.316 332.793 108.99 332.793 119.5H336.793ZM327.998 93.378C322.051 87.07 313.983 84 304.043 84V88C313.103 88 320.035 90.7633 325.088 96.122L327.998 93.378ZM304.043 84C293.946 84 285.722 87.0631 279.608 93.3564L282.478 96.1436C287.697 90.7703 294.807 88 304.043 88V84ZM279.608 93.357C273.628 99.5177 270.793 108.343 270.793 119.5H274.793C274.793 108.99 277.458 101.316 282.478 96.1429L279.608 93.357ZM270.793 119.5V196H274.793V119.5H270.793ZM272.793 194H237.793V198H272.793V194ZM239.793 196V57.5H235.793V196H239.793ZM237.793 59.5H272.793V55.5H237.793V59.5ZM270.793 57.5V74.25H274.793V57.5H270.793ZM274.377 75.4716C278.674 69.9002 284.171 65.5112 290.903 62.3057L289.183 58.6943C281.915 62.1555 275.911 66.9331 271.209 73.0284L274.377 75.4716ZM290.886 62.3134C297.769 59.1121 305.312 57.5 313.543 57.5V53.5C304.774 53.5 296.65 55.2212 289.2 58.6865L290.886 62.3134ZM313.543 57.5C324.08 57.5 333.409 59.7667 341.58 64.2531L343.505 60.7468C334.677 55.8999 324.673 53.5 313.543 53.5V57.5ZM341.607 64.2676C349.759 68.5832 356.06 74.8019 360.54 82.9625L364.046 81.0375C359.193 72.1981 352.327 65.4168 343.479 60.7324L341.607 64.2676ZM364.036 82.9805C368.346 75.3178 374.576 69.1546 382.782 64.4886L380.804 61.0114C372.01 66.0121 365.24 72.6821 360.55 81.0195L364.036 82.9805ZM382.767 64.4967C391.134 59.8308 400.131 57.5 409.793 57.5V53.5C399.455 53.5 389.786 56.0025 380.819 61.0033L382.767 64.4967ZM499.006 89L497.234 88.073L497.228 88.0838L497.223 88.0946L499.006 89ZM521.756 64L520.723 62.2876L520.716 62.2916L520.709 62.2957L521.756 64ZM581.006 61.5L580.051 63.2572L580.059 63.2615L580.067 63.2657L581.006 61.5ZM599.756 77.25L598.146 78.4364L601.756 83.3358V77.25H599.756ZM599.756 57.5V55.5H597.756V57.5H599.756ZM635.006 57.5H637.006V55.5H635.006V57.5ZM635.006 196V198H637.006V196H635.006ZM599.756 196H597.756V198H599.756V196ZM599.756 175.75H601.756V169.347L598.111 174.612L599.756 175.75ZM581.006 192L581.945 193.766L581.952 193.762L581.958 193.759L581.006 192ZM521.756 189.25L520.688 190.941L520.695 190.945L520.701 190.949L521.756 189.25ZM499.006 164L497.217 164.894L497.225 164.911L497.234 164.927L499.006 164ZM594.756 105L592.996 105.951L593.002 105.961L593.008 105.971L594.756 105ZM581.256 91L580.242 92.7239L580.261 92.7351L580.28 92.7459L581.256 91ZM545.006 90.75L544.008 89.0167V89.0168L545.006 90.75ZM531.506 104.75L529.766 103.763L529.762 103.771L529.758 103.779L531.506 104.75ZM531.506 148.25L529.736 149.181L529.751 149.21L529.766 149.237L531.506 148.25ZM545.006 162.5L543.969 164.21L543.98 164.217L543.992 164.224L545.006 162.5ZM581.256 162.75L582.232 164.496L582.251 164.485L582.27 164.474L581.256 162.75ZM594.756 148.75L596.504 149.721L596.51 149.711L596.515 149.701L594.756 148.75ZM492.756 126.25C492.756 112.517 495.452 100.418 500.789 89.9054L497.223 88.0946C491.56 99.2484 488.756 111.983 488.756 126.25H492.756ZM500.778 89.927C506.294 79.3816 513.639 71.3308 522.802 65.7043L520.709 62.2957C510.872 68.3358 503.051 76.9517 497.234 88.073L500.778 89.927ZM522.789 65.7124C532.129 60.0764 542.518 57.25 554.006 57.25V53.25C541.827 53.25 530.716 56.2569 520.723 62.2876L522.789 65.7124ZM554.006 57.25C564.067 57.25 572.727 59.2769 580.051 63.2572L581.961 59.7427C573.951 55.3898 564.611 53.25 554.006 53.25V57.25ZM580.067 63.2657C587.67 67.31 593.678 72.3731 598.146 78.4364L601.366 76.0636C596.5 69.4603 590.009 64.0234 581.945 59.7342L580.067 63.2657ZM601.756 77.25V57.5H597.756V77.25H601.756ZM599.756 59.5H635.006V55.5H599.756V59.5ZM633.006 57.5V196H637.006V57.5H633.006ZM635.006 194H599.756V198H635.006V194ZM601.756 196V175.75H597.756V196H601.756ZM598.111 174.612C593.815 180.817 587.819 186.035 580.053 190.241L581.958 193.759C590.193 189.298 596.696 183.683 601.4 176.888L598.111 174.612ZM580.067 190.234C572.567 194.224 563.816 196.25 553.756 196.25V200.25C564.363 200.25 573.778 198.11 581.945 193.766L580.067 190.234ZM553.756 196.25C542.452 196.25 532.152 193.349 522.811 187.551L520.701 190.949C530.693 197.151 541.726 200.25 553.756 200.25V196.25ZM522.824 187.559C513.648 181.764 506.296 173.622 500.778 163.073L497.234 164.927C503.049 176.044 510.864 184.736 520.688 190.941L522.824 187.559ZM500.795 163.106C495.453 152.423 492.756 140.153 492.756 126.25H488.756C488.756 140.68 491.558 153.577 497.217 164.894L500.795 163.106ZM601.756 126.75C601.756 117.99 600.038 110.389 596.504 104.029L593.008 105.971C596.141 111.611 597.756 118.51 597.756 126.75H601.756ZM596.515 104.049C593.016 97.5761 588.256 92.6208 582.232 89.2541L580.28 92.7459C585.589 95.7125 589.829 100.091 592.996 105.951L596.515 104.049ZM582.27 89.2761C576.3 85.7642 569.867 84 563.006 84V88C569.145 88 574.879 89.5692 580.242 92.7239L582.27 89.2761ZM563.006 84C556.164 84 549.819 85.6709 544.008 89.0167L546.004 92.4832C551.193 89.4957 556.847 88 563.006 88V84ZM544.008 89.0168C538.164 92.3817 533.422 97.323 529.766 103.763L533.245 105.737C536.59 99.8436 540.848 95.4516 546.004 92.4832L544.008 89.0168ZM529.758 103.779C526.227 110.133 524.506 117.649 524.506 126.25H528.506C528.506 118.184 530.118 111.367 533.254 105.721L529.758 103.779ZM524.506 126.25C524.506 134.854 526.228 142.517 529.736 149.181L533.276 147.318C530.117 141.316 528.506 134.312 528.506 126.25H524.506ZM529.766 149.237C533.417 155.67 538.148 160.682 543.969 164.21L546.042 160.79C540.864 157.651 536.594 153.164 533.245 147.263L529.766 149.237ZM543.992 164.224C549.954 167.731 556.302 169.5 563.006 169.5V165.5C557.043 165.5 551.391 163.936 546.02 160.776L543.992 164.224ZM563.006 169.5C569.847 169.5 576.266 167.829 582.232 164.496L580.28 161.004C574.912 164.004 569.165 165.5 563.006 165.5V169.5ZM582.27 164.474C588.258 160.952 593.006 156.019 596.504 149.721L593.008 147.779C589.84 153.481 585.587 157.882 580.242 161.026L582.27 164.474ZM596.515 149.701C600.037 143.186 601.756 135.512 601.756 126.75H597.756C597.756 134.988 596.142 141.98 592.996 147.799L596.515 149.701ZM691.689 192.25L690.849 194.065L690.863 194.071L690.877 194.078L691.689 192.25ZM670.189 175.5L668.58 176.688L668.589 176.7L668.599 176.712L670.189 175.5ZM661.689 152.25V150.25H659.568L659.693 152.367L661.689 152.25ZM696.939 152.25L698.924 152.002L698.705 150.25H696.939V152.25ZM704.689 165.5L703.462 167.079L703.475 167.089L703.49 167.1L704.689 165.5ZM737.439 166.75L736.297 165.108L736.28 165.12L736.263 165.133L737.439 166.75ZM736.189 146.5L735.269 148.276L735.308 148.296L735.347 148.314L736.189 146.5ZM714.439 139L714.955 137.068L714.932 137.062L714.91 137.056L714.439 139ZM688.939 131.25L688.18 133.1L688.188 133.104L688.197 133.107L688.939 131.25ZM671.939 119L670.414 120.294L670.426 120.307L670.437 120.32L671.939 119ZM671.439 75.75L669.809 74.5916L669.799 74.606L669.789 74.6206L671.439 75.75ZM690.439 60.75L689.634 58.9194L689.627 58.9224L689.62 58.9255L690.439 60.75ZM759.189 67.75L757.896 69.2758L757.904 69.2822L757.912 69.2886L759.189 67.75ZM775.439 101V103H777.587L777.434 100.857L775.439 101ZM741.939 101L739.948 101.181L740.113 103H741.939V101ZM734.939 88L733.659 89.5364L733.694 89.5652L733.729 89.5923L734.939 88ZM703.939 86.5L702.83 84.8359L702.811 84.8485L702.792 84.8615L703.939 86.5ZM705.939 107L704.995 108.763L705.02 108.776L705.045 108.789L705.939 107ZM727.689 114.25L727.197 116.188L727.204 116.19L727.689 114.25ZM769.189 134.5L767.646 135.771L767.666 135.796L767.687 135.82L769.189 134.5ZM776.689 156.5H778.689V156.482L778.689 156.464L776.689 156.5ZM769.939 178L768.309 176.842L768.299 176.856L768.289 176.871L769.939 178ZM750.939 193L751.727 194.838L751.736 194.835L751.745 194.831L750.939 193ZM722.189 196.25C711.094 196.25 701.21 194.293 692.502 190.422L690.877 194.078C700.169 198.207 710.618 200.25 722.189 200.25V196.25ZM692.53 190.435C683.787 186.388 676.892 180.997 671.78 174.288L668.599 176.712C674.153 184.003 681.592 189.779 690.849 194.065L692.53 190.435ZM671.799 174.312C666.857 167.617 664.163 160.237 663.686 152.133L659.693 152.367C660.216 161.263 663.189 169.383 668.58 176.688L671.799 174.312ZM661.689 154.25H696.939V150.25H661.689V154.25ZM694.955 152.498C695.692 158.392 698.571 163.275 703.462 167.079L705.917 163.921C701.808 160.725 699.521 156.775 698.924 152.002L694.955 152.498ZM703.49 167.1C708.559 170.902 714.75 172.75 721.939 172.75V168.75C715.462 168.75 710.153 167.098 705.889 163.9L703.49 167.1ZM721.939 172.75C728.839 172.75 734.48 171.375 738.616 168.367L736.263 165.133C733.065 167.458 728.373 168.75 721.939 168.75V172.75ZM738.582 168.392C742.877 165.404 745.189 161.408 745.189 156.5H741.189C741.189 159.925 739.669 162.763 736.297 165.108L738.582 168.392ZM745.189 156.5C745.189 153.885 744.505 151.516 743.078 149.478C741.662 147.456 739.601 145.879 737.032 144.686L735.347 148.314C737.444 149.288 738.883 150.461 739.801 151.772C740.708 153.067 741.189 154.615 741.189 156.5H745.189ZM737.11 144.724C732.407 142.286 724.982 139.741 714.955 137.068L713.924 140.932C723.897 143.592 730.972 146.047 735.269 148.276L737.11 144.724ZM714.91 137.056C704.63 134.569 696.229 132.012 689.682 129.393L688.197 133.107C694.983 135.822 703.583 138.431 713.969 140.944L714.91 137.056ZM689.699 129.4C683.496 126.855 678.08 122.958 673.442 117.68L670.437 120.32C675.465 126.042 681.383 130.312 688.18 133.1L689.699 129.4ZM673.464 117.706C669.185 112.663 666.939 105.751 666.939 96.75H662.939C662.939 106.415 665.36 114.337 670.414 120.294L673.464 117.706ZM666.939 96.75C666.939 89.4868 668.984 82.8804 673.09 76.8794L669.789 74.6206C665.228 81.2863 662.939 88.6799 662.939 96.75H666.939ZM673.07 76.9084C677.334 70.9072 683.367 66.1179 691.259 62.5745L689.62 58.9255C681.179 62.7154 674.545 67.9261 669.809 74.5916L673.07 76.9084ZM691.245 62.5806C699.274 59.0479 708.739 57.25 719.689 57.25V53.25C708.307 53.25 698.272 55.1187 689.634 58.9194L691.245 62.5806ZM719.689 57.25C735.852 57.25 748.516 61.3262 757.896 69.2758L760.483 66.2242C750.196 57.5071 736.527 53.25 719.689 53.25V57.25ZM757.912 69.2886C767.282 77.071 772.479 87.6271 773.445 101.142L777.434 100.857C776.4 86.3728 770.763 74.7624 760.467 66.2114L757.912 69.2886ZM775.439 99H741.939V103H775.439V99ZM743.931 100.819C743.384 94.7945 740.791 89.9348 736.15 86.4077L733.729 89.5923C737.422 92.3986 739.495 96.2055 739.948 101.181L743.931 100.819ZM736.22 86.4636C731.761 82.748 725.843 81 718.689 81V85C725.203 85 730.118 86.5853 733.659 89.5364L736.22 86.4636ZM718.689 81C712.148 81 706.786 82.1988 702.83 84.8359L705.049 88.1641C708.093 86.1345 712.564 85 718.689 85V81ZM702.792 84.8615C698.909 87.5797 696.939 91.4494 696.939 96.25H700.939C700.939 92.7173 702.303 90.0869 705.086 88.1385L702.792 84.8615ZM696.939 96.25C696.939 98.934 697.616 101.383 699.013 103.529C700.402 105.662 702.435 107.391 704.995 108.763L706.884 105.237C704.777 104.109 703.31 102.796 702.365 101.346C701.429 99.9088 700.939 98.2327 700.939 96.25H696.939ZM705.045 108.789C709.909 111.221 717.329 113.68 727.197 116.188L728.182 112.312C718.384 109.82 711.303 107.446 706.834 105.211L705.045 108.789ZM727.204 116.19C737.15 118.677 745.3 121.233 751.68 123.85L753.199 120.15C746.579 117.434 738.229 114.823 728.175 112.31L727.204 116.19ZM751.68 123.85C757.861 126.386 763.179 130.348 767.646 135.771L770.733 133.229C765.867 127.319 760.018 122.947 753.199 120.15L751.68 123.85ZM767.687 135.82C772.135 140.882 774.53 147.72 774.69 156.536L778.689 156.464C778.516 146.947 775.91 139.118 770.692 133.18L767.687 135.82ZM774.689 156.5C774.689 164.098 772.561 170.857 768.309 176.842L771.57 179.158C776.318 172.476 778.689 164.902 778.689 156.5H774.689ZM768.289 176.871C764.203 182.843 758.19 187.625 750.134 191.169L751.745 194.831C760.355 191.042 767.01 185.824 771.59 179.129L768.289 176.871ZM750.152 191.162C742.286 194.533 732.981 196.25 722.189 196.25V200.25C733.398 200.25 743.26 198.467 751.727 194.838L750.152 191.162ZM807.67 35.25L806.256 36.6642L806.285 36.6937L806.316 36.7219L807.67 35.25ZM807.67 5.99998L809.054 7.44396L809.055 7.44276L807.67 5.99998ZM838.42 5.99998L837.006 7.4142L837.035 7.44365L837.066 7.47185L838.42 5.99998ZM838.42 35.25L839.804 36.694L839.805 36.6928L838.42 35.25ZM840.42 57.5H842.42V55.5H840.42V57.5ZM840.42 196V198H842.42V196H840.42ZM805.42 196H803.42V198H805.42V196ZM805.42 57.5V55.5H803.42V57.5H805.42ZM823.17 39C817.456 39 812.787 37.2403 809.024 33.7781L806.316 36.7219C810.886 40.9264 816.55 43 823.17 43V39ZM809.084 33.8358C805.472 30.2237 803.67 25.8214 803.67 20.5H799.67C799.67 26.8453 801.868 32.2762 806.256 36.6642L809.084 33.8358ZM803.67 20.5C803.67 15.1796 805.47 10.8783 809.054 7.44396L806.286 4.55601C801.87 8.78834 799.67 14.1538 799.67 20.5H803.67ZM809.055 7.44276C812.822 3.8261 817.481 1.99999 823.17 1.99999V-2.00001C816.525 -2.00001 810.851 0.173882 806.285 4.55721L809.055 7.44276ZM823.17 1.99999C828.859 1.99999 833.417 3.82494 837.006 7.4142L839.834 4.58578C835.423 0.175041 829.814 -2.00001 823.17 -2.00001V1.99999ZM837.066 7.47185C840.807 10.9137 842.67 15.2068 842.67 20.5H846.67C846.67 14.1265 844.366 8.75299 839.774 4.52812L837.066 7.47185ZM842.67 20.5C842.67 25.7949 840.804 30.1886 837.035 33.8072L839.805 36.6928C844.369 32.3114 846.67 26.8718 846.67 20.5H842.67ZM837.036 33.806C833.452 37.2409 828.884 39 823.17 39V43C829.789 43 835.388 40.9257 839.804 36.694L837.036 33.806ZM838.42 57.5V196H842.42V57.5H838.42ZM840.42 194H805.42V198H840.42V194ZM807.42 196V57.5H803.42V196H807.42ZM805.42 59.5H840.42V55.5H805.42V59.5Z" fill="#EC008C"/>
</svg>
