<svg width="861" height="85" viewBox="0 0 861 85" fill="none" xmlns="http://www.w3.org/2000/svg">
<path d="M155.553 62.3811H3.94292C1.76381 62.3811 0 60.6092 0 58.4201V3.96095C0 1.77187 1.76381 0 3.94292 0H155.553C157.081 0 158.476 0.885933 159.122 2.27664L171.853 29.5088C172.35 30.575 172.35 31.8112 171.853 32.8774L159.122 60.1096C158.471 61.4951 157.081 62.3811 155.553 62.3811Z" fill="url(#paint0_linear_55_166)"/>
<rect x="0.452087" y="68.9356" width="157.761" height="16.0473" rx="8.02365" fill="#198CFF"/>
<path d="M60.16 26.53V28.225H57.37V37H55.27V28.225H52.48V26.53H60.16ZM61.1522 32.815C61.1522 31.975 61.3172 31.23 61.6472 30.58C61.9872 29.93 62.4422 29.43 63.0122 29.08C63.5922 28.73 64.2372 28.555 64.9472 28.555C65.5672 28.555 66.1072 28.68 66.5672 28.93C67.0372 29.18 67.4122 29.495 67.6922 29.875V28.69H69.8072V37H67.6922V35.785C67.4222 36.175 67.0472 36.5 66.5672 36.76C66.0972 37.01 65.5522 37.135 64.9322 37.135C64.2322 37.135 63.5922 36.955 63.0122 36.595C62.4422 36.235 61.9872 35.73 61.6472 35.08C61.3172 34.42 61.1522 33.665 61.1522 32.815ZM67.6922 32.845C67.6922 32.335 67.5922 31.9 67.3922 31.54C67.1922 31.17 66.9222 30.89 66.5822 30.7C66.2422 30.5 65.8772 30.4 65.4872 30.4C65.0972 30.4 64.7372 30.495 64.4072 30.685C64.0772 30.875 63.8072 31.155 63.5972 31.525C63.3972 31.885 63.2972 32.315 63.2972 32.815C63.2972 33.315 63.3972 33.755 63.5972 34.135C63.8072 34.505 64.0772 34.79 64.4072 34.99C64.7472 35.19 65.1072 35.29 65.4872 35.29C65.8772 35.29 66.2422 35.195 66.5822 35.005C66.9222 34.805 67.1922 34.525 67.3922 34.165C67.5922 33.795 67.6922 33.355 67.6922 32.845ZM76.4632 28.57C77.4532 28.57 78.2532 28.885 78.8632 29.515C79.4732 30.135 79.7782 31.005 79.7782 32.125V37H77.6782V32.41C77.6782 31.75 77.5132 31.245 77.1832 30.895C76.8532 30.535 76.4032 30.355 75.8332 30.355C75.2532 30.355 74.7932 30.535 74.4532 30.895C74.1232 31.245 73.9582 31.75 73.9582 32.41V37H71.8582V28.69H73.9582V29.725C74.2382 29.365 74.5932 29.085 75.0232 28.885C75.4632 28.675 75.9432 28.57 76.4632 28.57ZM85.0302 28.555C85.6502 28.555 86.1952 28.68 86.6652 28.93C87.1352 29.17 87.5052 29.485 87.7752 29.875V28.69H89.8902V37.06C89.8902 37.83 89.7352 38.515 89.4252 39.115C89.1152 39.725 88.6502 40.205 88.0302 40.555C87.4102 40.915 86.6602 41.095 85.7802 41.095C84.6002 41.095 83.6302 40.82 82.8702 40.27C82.1202 39.72 81.6952 38.97 81.5952 38.02H83.6802C83.7902 38.4 84.0252 38.7 84.3852 38.92C84.7552 39.15 85.2002 39.265 85.7202 39.265C86.3302 39.265 86.8252 39.08 87.2052 38.71C87.5852 38.35 87.7752 37.8 87.7752 37.06V35.77C87.5052 36.16 87.1302 36.485 86.6502 36.745C86.1802 37.005 85.6402 37.135 85.0302 37.135C84.3302 37.135 83.6902 36.955 83.1102 36.595C82.5302 36.235 82.0702 35.73 81.7302 35.08C81.4002 34.42 81.2352 33.665 81.2352 32.815C81.2352 31.975 81.4002 31.23 81.7302 30.58C82.0702 29.93 82.5252 29.43 83.0952 29.08C83.6752 28.73 84.3202 28.555 85.0302 28.555ZM87.7752 32.845C87.7752 32.335 87.6752 31.9 87.4752 31.54C87.2752 31.17 87.0052 30.89 86.6652 30.7C86.3252 30.5 85.9602 30.4 85.5702 30.4C85.1802 30.4 84.8202 30.495 84.4902 30.685C84.1602 30.875 83.8902 31.155 83.6802 31.525C83.4802 31.885 83.3802 32.315 83.3802 32.815C83.3802 33.315 83.4802 33.755 83.6802 34.135C83.8902 34.505 84.1602 34.79 84.4902 34.99C84.8302 35.19 85.1902 35.29 85.5702 35.29C85.9602 35.29 86.3252 35.195 86.6652 35.005C87.0052 34.805 87.2752 34.525 87.4752 34.165C87.6752 33.795 87.7752 33.355 87.7752 32.845ZM95.1963 28.555C95.8163 28.555 96.3613 28.68 96.8313 28.93C97.3013 29.17 97.6713 29.485 97.9413 29.875V28.69H100.056V37.06C100.056 37.83 99.9013 38.515 99.5913 39.115C99.2813 39.725 98.8163 40.205 98.1963 40.555C97.5763 40.915 96.8263 41.095 95.9463 41.095C94.7663 41.095 93.7963 40.82 93.0363 40.27C92.2863 39.72 91.8613 38.97 91.7613 38.02H93.8463C93.9563 38.4 94.1913 38.7 94.5513 38.92C94.9213 39.15 95.3663 39.265 95.8863 39.265C96.4963 39.265 96.9913 39.08 97.3713 38.71C97.7513 38.35 97.9413 37.8 97.9413 37.06V35.77C97.6713 36.16 97.2963 36.485 96.8163 36.745C96.3463 37.005 95.8063 37.135 95.1963 37.135C94.4963 37.135 93.8563 36.955 93.2763 36.595C92.6963 36.235 92.2363 35.73 91.8962 35.08C91.5662 34.42 91.4012 33.665 91.4012 32.815C91.4012 31.975 91.5662 31.23 91.8962 30.58C92.2363 29.93 92.6913 29.43 93.2613 29.08C93.8413 28.73 94.4863 28.555 95.1963 28.555ZM97.9413 32.845C97.9413 32.335 97.8413 31.9 97.6413 31.54C97.4413 31.17 97.1713 30.89 96.8313 30.7C96.4913 30.5 96.1263 30.4 95.7363 30.4C95.3463 30.4 94.9863 30.495 94.6562 30.685C94.3263 30.875 94.0563 31.155 93.8463 31.525C93.6463 31.885 93.5463 32.315 93.5463 32.815C93.5463 33.315 93.6463 33.755 93.8463 34.135C94.0563 34.505 94.3263 34.79 94.6562 34.99C94.9963 35.19 95.3563 35.29 95.7363 35.29C96.1263 35.29 96.4913 35.195 96.8313 35.005C97.1713 34.805 97.4413 34.525 97.6413 34.165C97.8413 33.795 97.9413 33.355 97.9413 32.845ZM109.952 28.69V37H107.837V35.95C107.567 36.31 107.212 36.595 106.772 36.805C106.342 37.005 105.872 37.105 105.362 37.105C104.712 37.105 104.137 36.97 103.637 36.7C103.137 36.42 102.742 36.015 102.452 35.485C102.172 34.945 102.032 34.305 102.032 33.565V28.69H104.132V33.265C104.132 33.925 104.297 34.435 104.627 34.795C104.957 35.145 105.407 35.32 105.977 35.32C106.557 35.32 107.012 35.145 107.342 34.795C107.672 34.435 107.837 33.925 107.837 33.265V28.69H109.952ZM116.704 28.57C117.334 28.57 117.894 28.71 118.384 28.99C118.874 29.26 119.254 29.665 119.524 30.205C119.804 30.735 119.944 31.375 119.944 32.125V37H117.844V32.41C117.844 31.75 117.679 31.245 117.349 30.895C117.019 30.535 116.569 30.355 115.999 30.355C115.419 30.355 114.959 30.535 114.619 30.895C114.289 31.245 114.124 31.75 114.124 32.41V37H112.024V25.9H114.124V29.725C114.394 29.365 114.754 29.085 115.204 28.885C115.654 28.675 116.154 28.57 116.704 28.57Z" fill="white"/>
<path d="M169.209 0H165.75C164.787 0 164.141 0.999167 164.531 1.88503L177.084 30.2686C177.34 30.8506 177.34 31.515 177.079 32.0919L164.346 60.4909C163.947 61.3768 164.592 62.3811 165.561 62.3811H169.029C169.829 62.3811 170.556 61.9073 170.889 61.1759L183.919 32.1125C184.18 31.5305 184.18 30.8712 183.924 30.2892L171.069 1.22064C170.746 0.473834 170.013 0 169.209 0Z" fill="#EDEDED"/>
<path d="M329.816 62.3811H180.075C177.175 62.3811 175.263 59.363 176.497 56.7363L187.684 32.8747C188.182 31.8086 188.182 30.5725 187.684 29.5064L176.497 5.64479C175.263 3.01811 177.18 0 180.075 0H329.816C331.348 0 332.747 0.88586 333.394 2.27646L346.16 29.5064C346.658 30.5725 346.658 31.8086 346.16 32.8747L333.394 60.1046C332.742 61.4952 331.348 62.3811 329.816 62.3811Z" fill="url(#paint1_linear_55_166)"/>
<path d="M235.276 26.53V28.225H232.486V37H230.386V28.225H227.596V26.53H235.276ZM244.533 32.665C244.533 32.965 244.513 33.235 244.473 33.475H238.398C238.448 34.075 238.658 34.545 239.028 34.885C239.398 35.225 239.853 35.395 240.393 35.395C241.173 35.395 241.728 35.06 242.058 34.39H244.323C244.083 35.19 243.623 35.85 242.943 36.37C242.263 36.88 241.428 37.135 240.438 37.135C239.638 37.135 238.918 36.96 238.278 36.61C237.648 36.25 237.153 35.745 236.793 35.095C236.443 34.445 236.268 33.695 236.268 32.845C236.268 31.985 236.443 31.23 236.793 30.58C237.143 29.93 237.633 29.43 238.263 29.08C238.893 28.73 239.618 28.555 240.438 28.555C241.228 28.555 241.933 28.725 242.553 29.065C243.183 29.405 243.668 29.89 244.008 30.52C244.358 31.14 244.533 31.855 244.533 32.665ZM242.358 32.065C242.348 31.525 242.153 31.095 241.773 30.775C241.393 30.445 240.928 30.28 240.378 30.28C239.858 30.28 239.418 30.44 239.058 30.76C238.708 31.07 238.493 31.505 238.413 32.065H242.358ZM248.166 29.98C248.436 29.54 248.786 29.195 249.216 28.945C249.656 28.695 250.156 28.57 250.716 28.57V30.775H250.161C249.501 30.775 249.001 30.93 248.661 31.24C248.331 31.55 248.166 32.09 248.166 32.86V37H246.066V28.69H248.166V29.98ZM251.59 32.815C251.59 31.975 251.755 31.23 252.085 30.58C252.425 29.93 252.88 29.43 253.45 29.08C254.03 28.73 254.675 28.555 255.385 28.555C256.005 28.555 256.545 28.68 257.005 28.93C257.475 29.18 257.85 29.495 258.13 29.875V28.69H260.245V37H258.13V35.785C257.86 36.175 257.485 36.5 257.005 36.76C256.535 37.01 255.99 37.135 255.37 37.135C254.67 37.135 254.03 36.955 253.45 36.595C252.88 36.235 252.425 35.73 252.085 35.08C251.755 34.42 251.59 33.665 251.59 32.815ZM258.13 32.845C258.13 32.335 258.03 31.9 257.83 31.54C257.63 31.17 257.36 30.89 257.02 30.7C256.68 30.5 256.315 30.4 255.925 30.4C255.535 30.4 255.175 30.495 254.845 30.685C254.515 30.875 254.245 31.155 254.035 31.525C253.835 31.885 253.735 32.315 253.735 32.815C253.735 33.315 253.835 33.755 254.035 34.135C254.245 34.505 254.515 34.79 254.845 34.99C255.185 35.19 255.545 35.29 255.925 35.29C256.315 35.29 256.68 35.195 257.02 35.005C257.36 34.805 257.63 34.525 257.83 34.165C258.03 33.795 258.13 33.355 258.13 32.845ZM272.616 28.57C273.636 28.57 274.456 28.885 275.076 29.515C275.706 30.135 276.021 31.005 276.021 32.125V37H273.921V32.41C273.921 31.76 273.756 31.265 273.426 30.925C273.096 30.575 272.646 30.4 272.076 30.4C271.506 30.4 271.051 30.575 270.711 30.925C270.381 31.265 270.216 31.76 270.216 32.41V37H268.116V32.41C268.116 31.76 267.951 31.265 267.621 30.925C267.291 30.575 266.841 30.4 266.271 30.4C265.691 30.4 265.231 30.575 264.891 30.925C264.561 31.265 264.396 31.76 264.396 32.41V37H262.296V28.69H264.396V29.695C264.666 29.345 265.011 29.07 265.431 28.87C265.861 28.67 266.331 28.57 266.841 28.57C267.491 28.57 268.071 28.71 268.581 28.99C269.091 29.26 269.486 29.65 269.766 30.16C270.036 29.68 270.426 29.295 270.936 29.005C271.456 28.715 272.016 28.57 272.616 28.57ZM280.114 29.89C280.384 29.51 280.754 29.195 281.224 28.945C281.704 28.685 282.249 28.555 282.859 28.555C283.569 28.555 284.209 28.73 284.779 29.08C285.359 29.43 285.814 29.93 286.144 30.58C286.484 31.22 286.654 31.965 286.654 32.815C286.654 33.665 286.484 34.42 286.144 35.08C285.814 35.73 285.359 36.235 284.779 36.595C284.209 36.955 283.569 37.135 282.859 37.135C282.249 37.135 281.709 37.01 281.239 36.76C280.779 36.51 280.404 36.195 280.114 35.815V40.96H278.014V28.69H280.114V29.89ZM284.509 32.815C284.509 32.315 284.404 31.885 284.194 31.525C283.994 31.155 283.724 30.875 283.384 30.685C283.054 30.495 282.694 30.4 282.304 30.4C281.924 30.4 281.564 30.5 281.224 30.7C280.894 30.89 280.624 31.17 280.414 31.54C280.214 31.91 280.114 32.345 280.114 32.845C280.114 33.345 280.214 33.78 280.414 34.15C280.624 34.52 280.894 34.805 281.224 35.005C281.564 35.195 281.924 35.29 282.304 35.29C282.694 35.29 283.054 35.19 283.384 34.99C283.724 34.79 283.994 34.505 284.194 34.135C284.404 33.765 284.509 33.325 284.509 32.815ZM289.245 27.7C288.875 27.7 288.565 27.585 288.315 27.355C288.075 27.115 287.955 26.82 287.955 26.47C287.955 26.12 288.075 25.83 288.315 25.6C288.565 25.36 288.875 25.24 289.245 25.24C289.615 25.24 289.92 25.36 290.16 25.6C290.41 25.83 290.535 26.12 290.535 26.47C290.535 26.82 290.41 27.115 290.16 27.355C289.92 27.585 289.615 27.7 289.245 27.7ZM290.28 28.69V37H288.18V28.69H290.28ZM294.455 25.9V37H292.355V25.9H294.455Z" fill="white"/>
<rect x="176.683" y="68.9356" width="157.309" height="16.0473" rx="8.02365" fill="#F25C90"/>
<path d="M343.573 0H340.075C339.101 0 338.448 0.999167 338.842 1.88503L351.538 30.2686C351.797 30.8506 351.797 31.515 351.532 32.0919L338.655 60.4909C338.251 61.3768 338.904 62.3811 339.883 62.3811H343.391C344.2 62.3811 344.936 61.9073 345.273 61.1759L358.45 32.1125C358.715 31.5305 358.715 30.8712 358.455 30.2892L345.454 1.22064C345.122 0.473834 344.386 0 343.573 0Z" fill="#EDEDED"/>
<path d="M503.331 62.3811H354.582C351.702 62.3811 349.802 59.363 351.028 56.7363L362.14 32.8747C362.636 31.8086 362.636 30.5725 362.14 29.5064L351.028 5.64479C349.802 3.01811 351.707 0 354.582 0H503.331C504.852 0 506.242 0.88586 506.885 2.27646L519.565 29.5064C520.061 30.5725 520.061 31.8086 519.565 32.8747L506.885 60.1046C506.242 61.4952 504.852 62.3811 503.331 62.3811Z" fill="url(#paint2_linear_55_166)"/>
<path d="M398.624 31.63C399.214 31.74 399.699 32.035 400.079 32.515C400.459 32.995 400.649 33.545 400.649 34.165C400.649 34.725 400.509 35.22 400.229 35.65C399.959 36.07 399.564 36.4 399.044 36.64C398.524 36.88 397.909 37 397.199 37H392.684V26.53H397.004C397.714 26.53 398.324 26.645 398.834 26.875C399.354 27.105 399.744 27.425 400.004 27.835C400.274 28.245 400.409 28.71 400.409 29.23C400.409 29.84 400.244 30.35 399.914 30.76C399.594 31.17 399.164 31.46 398.624 31.63ZM394.784 30.85H396.704C397.204 30.85 397.589 30.74 397.859 30.52C398.129 30.29 398.264 29.965 398.264 29.545C398.264 29.125 398.129 28.8 397.859 28.57C397.589 28.34 397.204 28.225 396.704 28.225H394.784V30.85ZM396.899 35.29C397.409 35.29 397.804 35.17 398.084 34.93C398.374 34.69 398.519 34.35 398.519 33.91C398.519 33.46 398.369 33.11 398.069 32.86C397.769 32.6 397.364 32.47 396.854 32.47H394.784V35.29H396.899ZM410.048 32.665C410.048 32.965 410.028 33.235 409.988 33.475H403.913C403.963 34.075 404.173 34.545 404.543 34.885C404.913 35.225 405.368 35.395 405.908 35.395C406.688 35.395 407.243 35.06 407.573 34.39H409.838C409.598 35.19 409.138 35.85 408.458 36.37C407.778 36.88 406.943 37.135 405.953 37.135C405.153 37.135 404.433 36.96 403.793 36.61C403.163 36.25 402.668 35.745 402.308 35.095C401.958 34.445 401.783 33.695 401.783 32.845C401.783 31.985 401.958 31.23 402.308 30.58C402.658 29.93 403.148 29.43 403.778 29.08C404.408 28.73 405.133 28.555 405.953 28.555C406.743 28.555 407.448 28.725 408.068 29.065C408.698 29.405 409.183 29.89 409.523 30.52C409.873 31.14 410.048 31.855 410.048 32.665ZM407.873 32.065C407.863 31.525 407.668 31.095 407.288 30.775C406.908 30.445 406.443 30.28 405.893 30.28C405.373 30.28 404.933 30.44 404.573 30.76C404.223 31.07 404.008 31.505 403.928 32.065H407.873ZM413.681 29.98C413.951 29.54 414.301 29.195 414.731 28.945C415.171 28.695 415.671 28.57 416.231 28.57V30.775H415.676C415.016 30.775 414.516 30.93 414.176 31.24C413.846 31.55 413.681 32.09 413.681 32.86V37H411.581V28.69H413.681V29.98ZM422.565 37L419.745 33.46V37H417.645V25.9H419.745V32.215L422.535 28.69H425.265L421.605 32.86L425.295 37H422.565ZM434.25 28.69V37H432.135V35.95C431.865 36.31 431.51 36.595 431.07 36.805C430.64 37.005 430.17 37.105 429.66 37.105C429.01 37.105 428.435 36.97 427.935 36.7C427.435 36.42 427.04 36.015 426.75 35.485C426.47 34.945 426.33 34.305 426.33 33.565V28.69H428.43V33.265C428.43 33.925 428.595 34.435 428.925 34.795C429.255 35.145 429.705 35.32 430.275 35.32C430.855 35.32 431.31 35.145 431.64 34.795C431.97 34.435 432.135 33.925 432.135 33.265V28.69H434.25ZM435.782 32.815C435.782 31.975 435.947 31.23 436.277 30.58C436.617 29.93 437.072 29.43 437.642 29.08C438.222 28.73 438.867 28.555 439.577 28.555C440.197 28.555 440.737 28.68 441.197 28.93C441.667 29.18 442.042 29.495 442.322 29.875V28.69H444.437V37H442.322V35.785C442.052 36.175 441.677 36.5 441.197 36.76C440.727 37.01 440.182 37.135 439.562 37.135C438.862 37.135 438.222 36.955 437.642 36.595C437.072 36.235 436.617 35.73 436.277 35.08C435.947 34.42 435.782 33.665 435.782 32.815ZM442.322 32.845C442.322 32.335 442.222 31.9 442.022 31.54C441.822 31.17 441.552 30.89 441.212 30.7C440.872 30.5 440.507 30.4 440.117 30.4C439.727 30.4 439.367 30.495 439.037 30.685C438.707 30.875 438.437 31.155 438.227 31.525C438.027 31.885 437.927 32.315 437.927 32.815C437.927 33.315 438.027 33.755 438.227 34.135C438.437 34.505 438.707 34.79 439.037 34.99C439.377 35.19 439.737 35.29 440.117 35.29C440.507 35.29 440.872 35.195 441.212 35.005C441.552 34.805 441.822 34.525 442.022 34.165C442.222 33.795 442.322 33.355 442.322 32.845ZM448.588 25.9V37H446.488V25.9H448.588ZM451.728 27.7C451.358 27.7 451.048 27.585 450.798 27.355C450.558 27.115 450.438 26.82 450.438 26.47C450.438 26.12 450.558 25.83 450.798 25.6C451.048 25.36 451.358 25.24 451.728 25.24C452.098 25.24 452.403 25.36 452.643 25.6C452.893 25.83 453.018 26.12 453.018 26.47C453.018 26.82 452.893 27.115 452.643 27.355C452.403 27.585 452.098 27.7 451.728 27.7ZM452.763 28.69V37H450.663V28.69H452.763ZM457.282 30.415V34.435C457.282 34.715 457.347 34.92 457.477 35.05C457.617 35.17 457.847 35.23 458.167 35.23H459.142V37H457.822C456.052 37 455.167 36.14 455.167 34.42V30.415H454.177V28.69H455.167V26.635H457.282V28.69H459.142V30.415H457.282ZM460.113 32.815C460.113 31.975 460.278 31.23 460.608 30.58C460.948 29.93 461.403 29.43 461.973 29.08C462.553 28.73 463.198 28.555 463.908 28.555C464.528 28.555 465.068 28.68 465.528 28.93C465.998 29.18 466.373 29.495 466.653 29.875V28.69H468.768V37H466.653V35.785C466.383 36.175 466.008 36.5 465.528 36.76C465.058 37.01 464.513 37.135 463.893 37.135C463.193 37.135 462.553 36.955 461.973 36.595C461.403 36.235 460.948 35.73 460.608 35.08C460.278 34.42 460.113 33.665 460.113 32.815ZM466.653 32.845C466.653 32.335 466.553 31.9 466.353 31.54C466.153 31.17 465.883 30.89 465.543 30.7C465.203 30.5 464.838 30.4 464.448 30.4C464.058 30.4 463.698 30.495 463.368 30.685C463.038 30.875 462.768 31.155 462.558 31.525C462.358 31.885 462.258 32.315 462.258 32.815C462.258 33.315 462.358 33.755 462.558 34.135C462.768 34.505 463.038 34.79 463.368 34.99C463.708 35.19 464.068 35.29 464.448 35.29C464.838 35.29 465.203 35.195 465.543 35.005C465.883 34.805 466.153 34.525 466.353 34.165C466.553 33.795 466.653 33.355 466.653 32.845ZM473.999 37.135C473.319 37.135 472.709 37.015 472.169 36.775C471.629 36.525 471.199 36.19 470.879 35.77C470.569 35.35 470.399 34.885 470.369 34.375H472.484C472.524 34.695 472.679 34.96 472.949 35.17C473.229 35.38 473.574 35.485 473.984 35.485C474.384 35.485 474.694 35.405 474.914 35.245C475.144 35.085 475.259 34.88 475.259 34.63C475.259 34.36 475.119 34.16 474.839 34.03C474.569 33.89 474.134 33.74 473.534 33.58C472.914 33.43 472.404 33.275 472.004 33.115C471.614 32.955 471.274 32.71 470.984 32.38C470.704 32.05 470.564 31.605 470.564 31.045C470.564 30.585 470.694 30.165 470.954 29.785C471.224 29.405 471.604 29.105 472.094 28.885C472.594 28.665 473.179 28.555 473.849 28.555C474.839 28.555 475.629 28.805 476.219 29.305C476.809 29.795 477.134 30.46 477.194 31.3H475.184C475.154 30.97 475.014 30.71 474.764 30.52C474.524 30.32 474.199 30.22 473.789 30.22C473.409 30.22 473.114 30.29 472.904 30.43C472.704 30.57 472.604 30.765 472.604 31.015C472.604 31.295 472.744 31.51 473.024 31.66C473.304 31.8 473.739 31.945 474.329 32.095C474.929 32.245 475.424 32.4 475.814 32.56C476.204 32.72 476.539 32.97 476.819 33.31C477.109 33.64 477.259 34.08 477.269 34.63C477.269 35.11 477.134 35.54 476.864 35.92C476.604 36.3 476.224 36.6 475.724 36.82C475.234 37.03 474.659 37.135 473.999 37.135Z" fill="white"/>
<rect x="350.75" y="68.9356" width="156.179" height="16.0473" rx="8.02365" fill="#FF8300"/>
<path d="M516.914 0H513.456C512.493 0 511.847 0.999249 512.236 1.88518L524.79 30.2711C525.046 30.8532 525.046 31.5176 524.785 32.0945L512.057 60.4907C511.657 61.3767 512.303 62.3811 513.271 62.3811H516.74C517.54 62.3811 518.267 61.9072 518.6 61.1758L531.63 32.11C531.891 31.5279 531.891 30.8686 531.635 30.2866L518.78 1.21558C518.452 0.473872 517.724 0 516.914 0Z" fill="#EDEDED"/>
<path d="M681.681 62.3811H532.933C530.053 62.3811 528.153 59.363 529.379 56.7363L540.491 32.8747C540.987 31.8086 540.987 30.5725 540.491 29.5064L529.379 5.64479C528.153 3.01811 530.058 0 532.933 0H681.681C683.203 0 684.592 0.88586 685.236 2.27646L697.916 29.5064C698.412 30.5725 698.412 31.8086 697.916 32.8747L685.236 60.1046C684.587 61.4952 683.203 62.3811 681.681 62.3811Z" fill="url(#paint3_linear_55_166)"/>
<path d="M585.16 26.53V28.225H582.37V37H580.27V28.225H577.48V26.53H585.16ZM594.417 32.665C594.417 32.965 594.397 33.235 594.357 33.475H588.282C588.332 34.075 588.542 34.545 588.912 34.885C589.282 35.225 589.737 35.395 590.277 35.395C591.057 35.395 591.612 35.06 591.942 34.39H594.207C593.967 35.19 593.507 35.85 592.827 36.37C592.147 36.88 591.312 37.135 590.322 37.135C589.522 37.135 588.802 36.96 588.162 36.61C587.532 36.25 587.037 35.745 586.677 35.095C586.327 34.445 586.152 33.695 586.152 32.845C586.152 31.985 586.327 31.23 586.677 30.58C587.027 29.93 587.517 29.43 588.147 29.08C588.777 28.73 589.502 28.555 590.322 28.555C591.112 28.555 591.817 28.725 592.437 29.065C593.067 29.405 593.552 29.89 593.892 30.52C594.242 31.14 594.417 31.855 594.417 32.665ZM592.242 32.065C592.232 31.525 592.037 31.095 591.657 30.775C591.277 30.445 590.812 30.28 590.262 30.28C589.742 30.28 589.302 30.44 588.942 30.76C588.592 31.07 588.377 31.505 588.297 32.065H592.242ZM598.05 29.98C598.32 29.54 598.67 29.195 599.1 28.945C599.54 28.695 600.04 28.57 600.6 28.57V30.775H600.045C599.385 30.775 598.885 30.93 598.545 31.24C598.215 31.55 598.05 32.09 598.05 32.86V37H595.95V28.69H598.05V29.98ZM601.474 32.815C601.474 31.975 601.639 31.23 601.969 30.58C602.309 29.93 602.769 29.43 603.349 29.08C603.929 28.73 604.574 28.555 605.284 28.555C605.824 28.555 606.339 28.675 606.829 28.915C607.319 29.145 607.709 29.455 607.999 29.845V25.9H610.129V37H607.999V35.77C607.739 36.18 607.374 36.51 606.904 36.76C606.434 37.01 605.889 37.135 605.269 37.135C604.569 37.135 603.929 36.955 603.349 36.595C602.769 36.235 602.309 35.73 601.969 35.08C601.639 34.42 601.474 33.665 601.474 32.815ZM608.014 32.845C608.014 32.335 607.914 31.9 607.714 31.54C607.514 31.17 607.244 30.89 606.904 30.7C606.564 30.5 606.199 30.4 605.809 30.4C605.419 30.4 605.059 30.495 604.729 30.685C604.399 30.875 604.129 31.155 603.919 31.525C603.719 31.885 603.619 32.315 603.619 32.815C603.619 33.315 603.719 33.755 603.919 34.135C604.129 34.505 604.399 34.79 604.729 34.99C605.069 35.19 605.429 35.29 605.809 35.29C606.199 35.29 606.564 35.195 606.904 35.005C607.244 34.805 607.514 34.525 607.714 34.165C607.914 33.795 608.014 33.355 608.014 32.845ZM619.906 32.665C619.906 32.965 619.886 33.235 619.846 33.475H613.771C613.821 34.075 614.031 34.545 614.401 34.885C614.771 35.225 615.226 35.395 615.766 35.395C616.546 35.395 617.101 35.06 617.431 34.39H619.696C619.456 35.19 618.996 35.85 618.316 36.37C617.636 36.88 616.801 37.135 615.811 37.135C615.011 37.135 614.291 36.96 613.651 36.61C613.021 36.25 612.526 35.745 612.166 35.095C611.816 34.445 611.641 33.695 611.641 32.845C611.641 31.985 611.816 31.23 612.166 30.58C612.516 29.93 613.006 29.43 613.636 29.08C614.266 28.73 614.991 28.555 615.811 28.555C616.601 28.555 617.306 28.725 617.926 29.065C618.556 29.405 619.041 29.89 619.381 30.52C619.731 31.14 619.906 31.855 619.906 32.665ZM617.731 32.065C617.721 31.525 617.526 31.095 617.146 30.775C616.766 30.445 616.301 30.28 615.751 30.28C615.231 30.28 614.791 30.44 614.431 30.76C614.081 31.07 613.866 31.505 613.786 32.065H617.731ZM623.538 29.89C623.808 29.51 624.178 29.195 624.648 28.945C625.128 28.685 625.673 28.555 626.283 28.555C626.993 28.555 627.633 28.73 628.203 29.08C628.783 29.43 629.238 29.93 629.568 30.58C629.908 31.22 630.078 31.965 630.078 32.815C630.078 33.665 629.908 34.42 629.568 35.08C629.238 35.73 628.783 36.235 628.203 36.595C627.633 36.955 626.993 37.135 626.283 37.135C625.673 37.135 625.133 37.01 624.663 36.76C624.203 36.51 623.828 36.195 623.538 35.815V40.96H621.438V28.69H623.538V29.89ZM627.933 32.815C627.933 32.315 627.828 31.885 627.618 31.525C627.418 31.155 627.148 30.875 626.808 30.685C626.478 30.495 626.118 30.4 625.728 30.4C625.348 30.4 624.988 30.5 624.648 30.7C624.318 30.89 624.048 31.17 623.838 31.54C623.638 31.91 623.538 32.345 623.538 32.845C623.538 33.345 623.638 33.78 623.838 34.15C624.048 34.52 624.318 34.805 624.648 35.005C624.988 35.195 625.348 35.29 625.728 35.29C626.118 35.29 626.478 35.19 626.808 34.99C627.148 34.79 627.418 34.505 627.618 34.135C627.828 33.765 627.933 33.325 627.933 32.815ZM631.064 32.815C631.064 31.975 631.229 31.23 631.559 30.58C631.899 29.93 632.354 29.43 632.924 29.08C633.504 28.73 634.149 28.555 634.859 28.555C635.479 28.555 636.019 28.68 636.479 28.93C636.949 29.18 637.324 29.495 637.604 29.875V28.69H639.719V37H637.604V35.785C637.334 36.175 636.959 36.5 636.479 36.76C636.009 37.01 635.464 37.135 634.844 37.135C634.144 37.135 633.504 36.955 632.924 36.595C632.354 36.235 631.899 35.73 631.559 35.08C631.229 34.42 631.064 33.665 631.064 32.815ZM637.604 32.845C637.604 32.335 637.504 31.9 637.304 31.54C637.104 31.17 636.834 30.89 636.494 30.7C636.154 30.5 635.789 30.4 635.399 30.4C635.009 30.4 634.649 30.495 634.319 30.685C633.989 30.875 633.719 31.155 633.509 31.525C633.309 31.885 633.209 32.315 633.209 32.815C633.209 33.315 633.309 33.755 633.509 34.135C633.719 34.505 633.989 34.79 634.319 34.99C634.659 35.19 635.019 35.29 635.399 35.29C635.789 35.29 636.154 35.195 636.494 35.005C636.834 34.805 637.104 34.525 637.304 34.165C637.504 33.795 637.604 33.355 637.604 32.845ZM646.375 28.57C647.365 28.57 648.165 28.885 648.775 29.515C649.385 30.135 649.69 31.005 649.69 32.125V37H647.59V32.41C647.59 31.75 647.425 31.245 647.095 30.895C646.765 30.535 646.315 30.355 645.745 30.355C645.165 30.355 644.705 30.535 644.365 30.895C644.035 31.245 643.87 31.75 643.87 32.41V37H641.77V28.69H643.87V29.725C644.15 29.365 644.505 29.085 644.935 28.885C645.375 28.675 645.855 28.57 646.375 28.57Z" fill="white"/>
<rect x="523.827" y="68.9356" width="157.309" height="16.0473" rx="8.02365" fill="#00A310"/>
<path d="M695.327 0H691.829C690.855 0 690.202 0.999167 690.596 1.88503L703.292 30.2686C703.551 30.8506 703.551 31.515 703.287 32.0919L690.409 60.4909C690.005 61.3768 690.658 62.3811 691.638 62.3811H695.146C695.954 62.3811 696.69 61.9073 697.027 61.1759L710.205 32.1125C710.469 31.5305 710.469 30.8712 710.21 30.2892L697.208 1.22064C696.876 0.473834 696.141 0 695.327 0Z" fill="#EDEDED"/>
<path d="M856.226 62.3811H707.958C705.06 62.3811 703.147 59.363 704.381 56.7363L715.566 32.8747C716.064 31.8086 716.064 30.5725 715.566 29.5064L704.381 5.64479C703.147 3.01811 705.065 0 707.958 0H856.226C858.411 0 860.179 1.77172 860.179 3.96062V58.4153C860.179 60.6094 858.405 62.3811 856.226 62.3811Z" fill="url(#paint4_linear_55_166)"/>
<path d="M758.105 26.53V33.01C758.105 33.72 758.29 34.265 758.66 34.645C759.03 35.015 759.55 35.2 760.22 35.2C760.9 35.2 761.425 35.015 761.795 34.645C762.165 34.265 762.35 33.72 762.35 33.01V26.53H764.465V32.995C764.465 33.885 764.27 34.64 763.88 35.26C763.5 35.87 762.985 36.33 762.335 36.64C761.695 36.95 760.98 37.105 760.19 37.105C759.41 37.105 758.7 36.95 758.06 36.64C757.43 36.33 756.93 35.87 756.56 35.26C756.19 34.64 756.005 33.885 756.005 32.995V26.53H758.105ZM771.099 28.57C772.089 28.57 772.889 28.885 773.499 29.515C774.109 30.135 774.414 31.005 774.414 32.125V37H772.314V32.41C772.314 31.75 772.149 31.245 771.819 30.895C771.489 30.535 771.039 30.355 770.469 30.355C769.889 30.355 769.429 30.535 769.089 30.895C768.759 31.245 768.594 31.75 768.594 32.41V37H766.494V28.69H768.594V29.725C768.874 29.365 769.229 29.085 769.659 28.885C770.099 28.675 770.579 28.57 771.099 28.57ZM779.666 28.555C780.286 28.555 780.831 28.68 781.301 28.93C781.771 29.17 782.141 29.485 782.411 29.875V28.69H784.526V37.06C784.526 37.83 784.371 38.515 784.061 39.115C783.751 39.725 783.286 40.205 782.666 40.555C782.046 40.915 781.296 41.095 780.416 41.095C779.236 41.095 778.266 40.82 777.506 40.27C776.756 39.72 776.331 38.97 776.231 38.02H778.316C778.426 38.4 778.661 38.7 779.021 38.92C779.391 39.15 779.836 39.265 780.356 39.265C780.966 39.265 781.461 39.08 781.841 38.71C782.221 38.35 782.411 37.8 782.411 37.06V35.77C782.141 36.16 781.766 36.485 781.286 36.745C780.816 37.005 780.276 37.135 779.666 37.135C778.966 37.135 778.326 36.955 777.746 36.595C777.166 36.235 776.706 35.73 776.366 35.08C776.036 34.42 775.871 33.665 775.871 32.815C775.871 31.975 776.036 31.23 776.366 30.58C776.706 29.93 777.161 29.43 777.731 29.08C778.311 28.73 778.956 28.555 779.666 28.555ZM782.411 32.845C782.411 32.335 782.311 31.9 782.111 31.54C781.911 31.17 781.641 30.89 781.301 30.7C780.961 30.5 780.596 30.4 780.206 30.4C779.816 30.4 779.456 30.495 779.126 30.685C778.796 30.875 778.526 31.155 778.316 31.525C778.116 31.885 778.016 32.315 778.016 32.815C778.016 33.315 778.116 33.755 778.316 34.135C778.526 34.505 778.796 34.79 779.126 34.99C779.466 35.19 779.826 35.29 780.206 35.29C780.596 35.29 780.961 35.195 781.301 35.005C781.641 34.805 781.911 34.525 782.111 34.165C782.311 33.795 782.411 33.355 782.411 32.845ZM789.832 28.555C790.452 28.555 790.997 28.68 791.467 28.93C791.937 29.17 792.307 29.485 792.577 29.875V28.69H794.692V37.06C794.692 37.83 794.537 38.515 794.227 39.115C793.917 39.725 793.452 40.205 792.832 40.555C792.212 40.915 791.462 41.095 790.582 41.095C789.402 41.095 788.432 40.82 787.672 40.27C786.922 39.72 786.497 38.97 786.397 38.02H788.482C788.592 38.4 788.827 38.7 789.187 38.92C789.557 39.15 790.002 39.265 790.522 39.265C791.132 39.265 791.627 39.08 792.007 38.71C792.387 38.35 792.577 37.8 792.577 37.06V35.77C792.307 36.16 791.932 36.485 791.452 36.745C790.982 37.005 790.442 37.135 789.832 37.135C789.132 37.135 788.492 36.955 787.912 36.595C787.332 36.235 786.872 35.73 786.532 35.08C786.202 34.42 786.037 33.665 786.037 32.815C786.037 31.975 786.202 31.23 786.532 30.58C786.872 29.93 787.327 29.43 787.897 29.08C788.477 28.73 789.122 28.555 789.832 28.555ZM792.577 32.845C792.577 32.335 792.477 31.9 792.277 31.54C792.077 31.17 791.807 30.89 791.467 30.7C791.127 30.5 790.762 30.4 790.372 30.4C789.982 30.4 789.622 30.495 789.292 30.685C788.962 30.875 788.692 31.155 788.482 31.525C788.282 31.885 788.182 32.315 788.182 32.815C788.182 33.315 788.282 33.755 788.482 34.135C788.692 34.505 788.962 34.79 789.292 34.99C789.632 35.19 789.992 35.29 790.372 35.29C790.762 35.29 791.127 35.195 791.467 35.005C791.807 34.805 792.077 34.525 792.277 34.165C792.477 33.795 792.577 33.355 792.577 32.845ZM804.588 28.69V37H802.473V35.95C802.203 36.31 801.848 36.595 801.408 36.805C800.978 37.005 800.508 37.105 799.998 37.105C799.348 37.105 798.773 36.97 798.273 36.7C797.773 36.42 797.378 36.015 797.088 35.485C796.808 34.945 796.668 34.305 796.668 33.565V28.69H798.768V33.265C798.768 33.925 798.933 34.435 799.263 34.795C799.593 35.145 800.043 35.32 800.613 35.32C801.193 35.32 801.648 35.145 801.978 34.795C802.308 34.435 802.473 33.925 802.473 33.265V28.69H804.588ZM808.76 25.9V37H806.66V25.9H808.76Z" fill="white"/>
<rect x="702.403" y="68.9356" width="157.309" height="16.0473" rx="8.02365" fill="#463BB5"/>
<defs>
<linearGradient id="paint0_linear_55_166" x1="-0.00194839" y1="31.1902" x2="172.226" y2="31.1902" gradientUnits="userSpaceOnUse">
<stop stop-color="#198CFF"/>
<stop offset="1" stop-color="#0063C7"/>
</linearGradient>
<linearGradient id="paint1_linear_55_166" x1="176.116" y1="31.1928" x2="346.535" y2="31.1928" gradientUnits="userSpaceOnUse">
<stop stop-color="#E84383"/>
<stop offset="1" stop-color="#FF78A0"/>
</linearGradient>
<linearGradient id="paint2_linear_55_166" x1="350.65" y1="31.1928" x2="519.94" y2="31.1928" gradientUnits="userSpaceOnUse">
<stop stop-color="#FF7F00"/>
<stop offset="1" stop-color="#FFAB00"/>
</linearGradient>
<linearGradient id="paint3_linear_55_166" x1="528.999" y1="31.1928" x2="698.289" y2="31.1928" gradientUnits="userSpaceOnUse">
<stop stop-color="#00A310"/>
<stop offset="1" stop-color="#00FFD1"/>
</linearGradient>
<linearGradient id="paint4_linear_55_166" x1="703.997" y1="31.1928" x2="860.178" y2="31.1928" gradientUnits="userSpaceOnUse">
<stop stop-color="#4439B5"/>
<stop offset="1" stop-color="#6554C0"/>
</linearGradient>
</defs>
</svg>
